<?xml version="1.0" encoding="utf-8"?>
<!-- Generator: Adobe Illustrator 23.1.1, SVG Export Plug-In . SVG Version: 6.00 Build 0)  -->
<svg version="1.1" id="Layer_1" xmlns="http://www.w3.org/2000/svg" xmlns:xlink="http://www.w3.org/1999/xlink" x="0px" y="0px"
	 viewBox="0 0 400.4 250.3" style="enable-background:new 0 0 400.4 250.3;" xml:space="preserve">
<style type="text/css">
	.st0{fill:#FFFFFF;}
</style>
<g id="_x36_HHKyk_1_">
	<g>
		<path class="st0" d="M8.72,72.98c1-0.77,2.01-1.52,2.99-2.3c0.31-0.24,0.44-0.19,0.63,0.14c1.52,2.66,3.11,5.29,4.55,7.99
			c0.46,0.88,0.55,1.97,0.75,2.97c0.35,1.75,0.65,3.51,0.95,5.27c0.04,0.21-0.06,0.51-0.21,0.68c-0.99,1.15-2.01,2.28-3.11,3.52
			c-0.24-1.19-0.48-2.29-0.69-3.41c-0.28-1.43-0.39-2.91-0.84-4.28c-0.5-1.52-1.29-2.94-2-4.39c-0.88-1.78-1.81-3.54-2.72-5.31
			c-0.08-0.15-0.19-0.28-0.29-0.42C8.72,73.28,8.72,73.13,8.72,72.98z"/>
		<path class="st0" d="M391.68,106.86c-0.46,0.26-0.9,0.52-1.35,0.76c-2.7,1.47-5.4,2.94-8.12,4.38c-0.54,0.28-0.76,0.65-0.89,1.22
			c-1.22,5.26-2.48,10.51-3.71,15.77c-0.12,0.53-0.37,0.88-0.85,1.17c-4.44,2.67-8.86,5.37-13.3,8.03c-0.34,0.2-0.83,0.3-1.21,0.23
			c-8.41-1.46-16.67-3.52-24.84-5.96c-0.31-0.09-0.64-0.33-0.82-0.6c-2.81-4.14-5.61-8.29-8.38-12.45
			c-0.18-0.27-0.24-0.72-0.18-1.05c0.87-5.75,1.73-11.5,2.69-17.23c0.17-1.01-0.06-1.67-0.68-2.41c-2.32-2.77-4.59-5.6-6.92-8.46
			c0.26-0.16,0.49-0.31,0.73-0.44c3.18-1.71,6.36-3.42,9.56-5.1c0.46-0.24,0.67-0.54,0.78-1.03c0.88-4.1,1.78-8.2,2.66-12.31
			c0.11-0.52,0.32-0.9,0.8-1.22c4.54-3.04,9.06-6.11,13.6-9.15c0.34-0.23,0.87-0.38,1.26-0.31c4.38,0.82,8.77,1.58,13.11,2.59
			c3.76,0.88,7.45,2.06,11.16,3.12c1.11,0.31,2.4,0.4,3.25,1.06c0.85,0.66,1.27,1.89,1.87,2.88c1.89,3.14,3.79,6.28,5.65,9.44
			c0.2,0.34,0.32,0.83,0.25,1.22c-0.92,5.35-1.89,10.69-2.81,16.04c-0.06,0.37,0.07,0.87,0.3,1.18c1.99,2.71,4.02,5.39,6.04,8.08
			C391.42,106.47,391.53,106.64,391.68,106.86z M373.4,84.99c-0.09-0.15-0.21-0.42-0.39-0.63c-1.66-1.96-3.31-3.93-5.01-5.85
			c-0.31-0.35-0.8-0.64-1.26-0.73c-3.03-0.62-6.08-1.2-9.13-1.75c-0.36-0.07-0.81,0.01-1.14,0.17c-1.55,0.75-3.02,1.65-4.61,2.3
			c-1.28,0.52-1.67,1.36-1.84,2.65c-0.4,3.15-0.85,6.3-1.48,9.41c-1.47,7.27-3.07,14.52-4.59,21.79c-0.07,0.33,0.04,0.77,0.22,1.06
			c1.32,2.08,2.67,4.14,4.05,6.18c0.18,0.26,0.52,0.49,0.83,0.58c3.06,0.83,6.13,1.63,9.21,2.4c0.34,0.08,0.77,0.02,1.1-0.12
			c2.07-0.88,4.13-1.82,6.2-2.7c0.44-0.19,0.68-0.43,0.79-0.91c0.88-3.79,1.86-7.55,2.67-11.36c1.19-5.63,2.27-11.29,3.38-16.94
			C372.75,88.74,373.05,86.95,373.4,84.99z"/>
		<path class="st0" d="M73.57,29.38c1.69,0.45,3.45,0.86,5.17,1.39c1.39,0.43,2.88,0.82,3.62,2.24c0.32,0.61,0.55,1.43,0.43,2.08
			c-0.3,1.75-0.87,3.45-1.22,5.19c-0.27,1.33-0.46,2.69-0.55,4.04c-0.08,1.29,0.75,1.79,1.84,1.12c1.77-1.09,2.96-2.6,2.91-4.8
			c-0.08-3.65,0.73-7.12,2.29-10.39c1.64-3.43,4.12-6.03,7.84-7.24c2.06-0.67,4.09-0.6,5.91,0.68c0.63,0.44,1.1,1.1,1.66,1.68
			c0.3-0.97,0.6-1.99,0.96-2.99c0.07-0.18,0.38-0.37,0.59-0.4c2.11-0.23,4.23-0.43,6.35-0.64c0.17-0.02,0.33-0.08,0.63-0.16
			c-0.16,0.58-0.29,1.07-0.43,1.56c-1.36,4.98-2.73,9.96-4.05,14.95c-0.24,0.89-0.28,1.85-0.32,2.78c-0.06,1.18,0.55,1.64,1.72,1.05
			c1.32-0.66,2.22-1.77,3.04-2.93c2.14-3.02,3.31-6.47,4.32-9.98c0.75-2.6,1.43-5.22,2.2-7.82c0.07-0.23,0.52-0.47,0.81-0.51
			c2.14-0.24,4.28-0.43,6.42-0.64c0.07-0.01,0.15,0.03,0.25,0.05c-0.22,0.77-0.43,1.53-0.61,2.16c1.5-0.78,2.96-1.73,4.55-2.34
			c2.05-0.79,4.2-1.14,6.21,0.27c0.97,0.68,1.36,1.65,1.43,2.77c0.14,2.18-0.66,4.16-1.31,6.17c-0.94,2.91-1.91,5.81-2.79,8.73
			c-0.14,0.47-0.07,1.32,0.23,1.53c0.35,0.25,1.12,0.13,1.6-0.08c2.16-0.96,3.74-2.61,4.87-4.64c0.61-1.11,1-2.35,1.38-3.57
			c0.14-0.45,0.33-0.58,0.72-0.59c2.07-0.06,2.93,1.03,2.48,3.06c-0.42,1.88-1.54,3.42-2.72,4.9c-1.42,1.78-3.1,3.29-5,4.53
			c-1.88,1.23-3.86,2.16-6.22,2.01c-2.46-0.16-3.91-1.66-4.31-3.9c-0.44-2.46,0.07-4.82,0.75-7.16c0.64-2.16,1.29-4.32,1.92-6.49
			c0.31-1.06,0.1-1.96-1.5-1.56c-1.91,0.48-3.03,1.91-4,3.49c-1.5,2.43-2.07,5.21-2.87,7.89c-0.77,2.62-1.45,5.27-2.2,7.9
			c-0.05,0.17-0.28,0.39-0.44,0.41c-1.58,0.18-3.17,0.32-4.76,0.48c-0.55,0.06-1.09,0.15-1.78,0.25c0.22-0.91,0.43-1.77,0.64-2.67
			c-0.8,0.72-1.56,1.45-2.37,2.12c-1.92,1.61-4.11,2.18-6.58,1.68c-1.15-0.23-2.54-1.38-3.27-2.76c-1.27,1.77-2.72,3.32-4.72,4.25
			c-2.07,0.95-4.19,1.28-6.2-0.01c-0.88-0.56-1.54-1.46-2.29-2.19c-0.66,0.73-1.4,1.64-2.24,2.44c-1.19,1.14-2.54,2.1-4.17,2.49
			c-2.22,0.53-4.5,0.17-5.72-2.06c-0.56-1.02-0.8-2.28-0.89-3.46c-0.19-2.73,0.61-5.34,1.28-7.96c0.08-0.32,0.18-0.63,0.22-0.95
			c0.14-1.4-0.04-1.66-1.44-2.14c-0.3-0.1-0.61-0.22-0.95-0.34c-0.41,3.06-1,6.02-2.07,8.84c-1.69,4.46-3.68,8.78-6.57,12.6
			c-1.16,1.54-2.62,2.85-3.91,4.3c-0.24,0.27-0.41,0.69-0.44,1.05c-0.28,3.29-0.35,6.59-1.52,9.76c-0.99,2.7-2.5,4.93-5.11,6.21
			c-2.81,1.37-5.4,1.34-7.9-0.94c-1.35-1.23-2.12-2.89-2.09-4.71c0.05-2.29,0.84-4.36,2.47-6.08c1.81-1.92,4.08-3.23,6.18-4.75
			c0.47-0.34,0.96-0.65,1.41-1c0.12-0.09,0.2-0.29,0.21-0.45c0.07-0.89,0.1-1.78,0.17-2.67c0.03-0.35,0.1-0.69,0.13-0.92
			c-0.81,0.82-1.63,1.74-2.55,2.54c-3.06,2.64-7.79,3.27-11.38,0.61c-2.36-1.75-3.75-4.13-4.52-6.9c-0.38-1.38-0.61-2.8-0.91-4.19
			c-1.19-0.39-2.52-0.7-3.74-1.25c-3.46-1.55-6.08-3.94-6.73-7.86c-0.56-3.34,0.28-6.38,2.74-8.82c0.87-0.86,1.85-1.67,2.91-2.28
			c1.22-0.71,2.11-0.32,2.82,0.58c0.44,0.57,0.4,1.09-0.18,1.5c-1.69,1.19-2.67,2.87-3.19,4.82c-0.56,2.09,0.68,4.47,2.84,5.63
			c1.25,0.68,2.01,0.9,2.79,0.82c0.38-2.96,0.86-5.91,1.88-8.74c1.27-3.51,3.03-6.73,5.49-9.57c1.85-2.14,3.95-3.91,6.52-5.11
			c1.88-0.87,3.86-1.41,5.92-1.3c3.17,0.16,5.69,1.53,7.33,4.35c0.9,1.55,1.35,3.22,1.57,4.99c0.49,3.92-0.88,7.28-3.06,10.39
			c-2.09,2.99-4.8,5.34-7.92,7.2c-2.68,1.61-5.53,2.88-8.54,3.75c-0.21,0.06-0.42,0.13-0.73,0.22c0.22,1.18,0.32,2.4,0.69,3.53
			c0.94,2.92,3.06,3.37,5.39,1.94c2.96-1.81,4.77-4.49,5.55-7.88c0.06-0.26,0.24-0.57,0.45-0.7c2.09-1.25,4.2-2.47,6.43-3.76
			c-0.42,4.52-0.83,8.89-1.24,13.25c0.06,0.04,0.12,0.08,0.18,0.11c0.3-0.32,0.65-0.62,0.91-0.97c2.82-3.82,4.66-8.09,5.7-12.69
			c0.42-1.84,0.56-3.74,0.8-5.61c0.03-0.23-0.09-0.62-0.26-0.71c-2.15-1.11-2.24-3.36-1.55-5.21c0.78-2.1,2.06-3.83,4.23-4.69
			c2.17-0.87,3.39-0.08,3.43,2.18C73.91,26.99,73.69,28.14,73.57,29.38z M43.58,40.08c3.02-1.02,5.55-2.44,7.75-4.41
			c2.38-2.13,3.95-4.75,4.52-7.93c0.39-2.16-1.03-3.92-3.38-3.33c-2.04,0.51-3.45,1.81-4.61,3.45c-1.71,2.42-2.72,5.13-3.38,7.99
			C44.17,37.19,43.9,38.54,43.58,40.08z M93.27,38.39c0.09,0.55,0.19,1.43,0.38,2.28c0.35,1.55,1.86,2.26,3.21,1.46
			c0.58-0.34,1.12-0.81,1.53-1.34c1.33-1.69,1.97-3.7,2.49-5.75c0.37-1.46,0.83-2.9,0.47-4.45c-0.32-1.38-1.35-2.63-2.61-2.46
			c-1.14,0.15-2.04,0.77-2.74,1.61C94,32.14,93.45,35.03,93.27,38.39z M52.97,65.51c-0.08-0.06-0.17-0.11-0.25-0.17
			c-1,0.99-2.03,1.96-2.99,2.98c-0.37,0.39-0.64,0.9-0.84,1.41c-0.48,1.16-0.21,2.1,0.9,2.27c0.74,0.12,1.38-0.2,1.77-0.88
			C52.57,69.37,52.86,67.46,52.97,65.51z"/>
		<path class="st0" d="M217.66,51.61c3.29-0.26,6.48-0.61,9.68-0.71c1.48-0.04,2.98,0.42,4.48,0.65c1.74,0.28,3.48,0.56,5.32,0.85
			c-0.31,1.18-0.56,2.33-0.93,3.43c-0.96,2.86-1.14,5.82-1.26,8.79c-0.36,8.75-0.68,17.49-1.07,26.24c-0.2,4.64-0.6,9.27-0.73,13.91
			c-0.05,1.9,0.38,3.81,0.62,5.71c0.16,1.24,0.37,2.48,0.59,3.94c-5.75-1.22-11.48-1.66-17.4-1.23c0.28-1.25,0.46-2.33,0.78-3.37
			c1.03-3.34,1.26-6.78,1.36-10.25c0.12-4.16,0.36-8.31,0.55-12.46c0.01-0.26,0.02-0.51,0.04-0.86c-5.38-0.19-10.73-0.37-16.15-0.56
			c0,1.42,0,2.77,0,4.13c-0.01,4.9-0.04,9.81-0.03,14.71c0,0.53,0.08,1.07,0.23,1.58c0.64,2.16,1.32,4.31,1.98,6.46
			c0.04,0.14,0.07,0.29,0.13,0.54c-0.97-0.09-1.87-0.16-2.77-0.25c-2.17-0.23-4.33-0.55-6.5-0.68c-1.16-0.07-2.34,0.17-3.51,0.3
			c-1.98,0.21-3.96,0.44-6.04,0.68c0.07-0.33,0.12-0.59,0.19-0.85c0.64-2.18,1.29-4.37,1.92-6.55c0.11-0.39,0.19-0.8,0.18-1.2
			c-0.12-3.41-0.33-6.82-0.37-10.24c-0.05-3.9,0.12-7.8,0.08-11.71c-0.07-7.57-0.21-15.15-0.37-22.72c-0.02-0.82-0.23-1.67-0.5-2.46
			c-0.7-2.05-1.49-4.08-2.29-6.24c1.17,0.15,2.23,0.29,3.29,0.43c2.08,0.28,4.16,0.68,6.25,0.81c1.41,0.08,2.85-0.18,4.27-0.36
			c2.38-0.29,4.76-0.63,7.23-0.96c-0.09,0.37-0.14,0.66-0.22,0.95c-0.54,1.82-1.15,3.61-1.6,5.45c-0.28,1.13-0.44,2.31-0.48,3.48
			c-0.13,3.9-0.19,7.8-0.27,11.7c-0.01,0.45,0.06,0.91,0.1,1.46c0.41,0,0.77,0,1.12,0c4.24,0.07,8.47,0.12,12.71,0.22
			c0.77,0.02,0.99-0.28,1.02-0.95c0.07-1.77,0.16-3.54,0.22-5.31c0.11-2.95,0.23-5.9,0.31-8.85c0.01-0.4-0.07-0.82-0.18-1.2
			c-0.6-1.98-1.23-3.96-1.85-5.94C217.75,52,217.72,51.85,217.66,51.61z"/>
		<path class="st0" d="M104.01,57.77c1.6,0,3.14-0.13,4.66,0.03c3.36,0.33,6.57-0.22,9.76-1.2c1.81-0.56,3.65-0.98,5.62-1.5
			c-0.05,0.3-0.07,0.53-0.13,0.76c-0.48,1.96-1.02,3.91-1.42,5.89c-0.17,0.83-0.11,1.73-0.03,2.58c0.37,4.22,0.76,8.43,1.17,12.64
			c0.36,3.67,0.71,7.35,1.14,11.02c0.56,4.76,1.19,9.51,1.79,14.26c0.09,0.71,0.24,1.42,0.3,2.13c0.02,0.28-0.06,0.61-0.2,0.86
			c-2.4,4.09-4.81,8.18-7.24,12.25c-0.14,0.24-0.48,0.46-0.75,0.5c-3.53,0.48-7.07,0.87-10.6,1.38c-2.76,0.4-5.5,0.95-8.24,1.45
			c-1.44,0.26-2.86,0.57-4.3,0.82c-0.27,0.05-0.62-0.03-0.85-0.19c-4.52-2.98-9.03-5.97-13.53-8.98c-0.22-0.15-0.43-0.52-0.43-0.78
			c-0.04-5.05-0.88-10-1.64-14.97c-0.65-4.25-1.21-8.52-1.94-12.77c-0.46-2.67-1.15-5.3-1.74-7.95c-0.15-0.65-0.36-1.29-0.44-1.95
			c-0.27-2.21-1.43-4.03-2.47-5.91c-0.76-1.36-1.51-2.73-2.31-4.17c2.07-0.6,4.08-1.18,6.08-1.76c1.06-0.31,2.13-0.56,3.17-0.92
			c2.29-0.8,4.68-0.39,7.02-0.59c1.35-0.11,2.71-0.02,4.15-0.02c-0.25,1.46-0.5,2.89-0.75,4.32c-0.17,0.98-0.46,1.96-0.49,2.95
			c-0.03,0.98,0.14,1.99,0.31,2.96c1.06,6.21,2.13,12.42,3.21,18.62c0.81,4.69,1.63,9.39,2.46,14.08c0.04,0.23,0.23,0.52,0.43,0.63
			c1.69,0.97,3.39,1.92,5.1,2.85c0.2,0.11,0.49,0.14,0.71,0.1c1.66-0.31,3.32-0.64,4.97-0.99c0.25-0.05,0.51-0.25,0.69-0.44
			c1.22-1.32,2.44-2.64,3.62-4c0.21-0.24,0.35-0.63,0.33-0.95c-0.2-3.28-0.31-6.57-0.7-9.83c-0.8-6.61-1.76-13.21-2.65-19.81
			c-0.27-2.01-0.53-4.01-0.82-6.02c-0.06-0.4-0.18-0.8-0.34-1.18c-0.77-1.81-1.57-3.62-2.36-5.43
			C104.22,58.33,104.13,58.07,104.01,57.77z"/>
		<path class="st0" d="M29.42,136.72c0.09-1.73,0.13-3.32,0.28-4.9c0.19-1.98,0.03-3.93-0.3-5.89c-0.54-3.16-0.91-6.34-1.51-9.48
			c-0.78-4.05-1.76-8.05-2.55-12.09c-0.22-1.11-0.73-1.68-1.74-2.11c-3.08-1.33-6.11-2.77-9.16-4.16c-0.27-0.13-0.54-0.26-0.89-0.43
			c0.2-0.22,0.36-0.41,0.53-0.59c2.44-2.46,4.88-4.93,7.33-7.37c0.34-0.34,0.49-0.66,0.4-1.15c-0.72-3.83-1.41-7.65-2.13-11.48
			c-0.06-0.34-0.2-0.69-0.37-0.99c-1.44-2.6-2.89-5.2-4.33-7.8c-0.13-0.24-0.26-0.49-0.41-0.79c3.54-0.59,7.06-1,10.48-1.8
			c3.41-0.79,6.72-1.95,10.19-2.98c-0.14,1.34-0.25,2.58-0.39,3.82c-0.18,1.66-0.49,3.31-0.5,4.97c-0.01,1.21,0.33,2.42,0.57,3.63
			c0.64,3.32,1.32,6.63,1.95,9.95c0.1,0.52,0.34,0.71,0.78,0.88c3.59,1.37,7.17,2.76,10.75,4.14c0.23,0.09,0.46,0.2,0.78,0.33
			c-1.36,1.5-2.66,2.94-3.96,4.38c-1.4,1.54-2.81,3.07-4.18,4.63c-0.18,0.21-0.3,0.6-0.24,0.86c1.41,6.32,2.84,12.63,4.27,18.95
			c0.02,0.1,0.05,0.19,0.09,0.37c1.89-0.41,3.76-0.8,5.62-1.21c2.92-0.64,5.85-1.29,8.77-1.95c0.36-0.08,0.73-0.24,1.04-0.44
			c2.95-1.91,5.88-3.85,8.82-5.77c0.23-0.15,0.47-0.29,0.86-0.53c-0.08,0.99-0.15,1.84-0.23,2.69c-0.51,4.95-1.03,9.89-1.52,14.84
			c-0.05,0.5-0.35,0.53-0.72,0.61c-6.47,1.43-12.95,2.82-19.41,4.31c-6.03,1.4-12.04,2.9-18.06,4.36
			C30.05,136.58,29.78,136.64,29.42,136.72z"/>
		<path class="st0" d="M271.32,70.18c1.02-2.02,1.95-3.87,2.88-5.72c1.46-2.91,2.93-5.81,4.36-8.73c0.23-0.46,0.43-0.6,0.98-0.51
			c6.12,1,12.24,1.99,18.37,2.9c3.67,0.55,7.38,0.9,11.05,1.45c3.77,0.57,7.52,1.26,11.28,1.92c1.16,0.2,2.3,0.51,3.46,0.68
			c0.63,0.1,0.84,0.35,0.87,0.97c0.09,2.15,0.23,4.31,0.35,6.46c0.15,2.79,0.3,5.59,0.45,8.38c0.01,0.25,0,0.5,0,0.83
			c-0.31-0.15-0.56-0.25-0.81-0.38c-2.55-1.31-5.08-2.68-7.67-3.91c-0.97-0.46-2.08-0.64-3.15-0.84c-1.79-0.33-3.59-0.58-5.39-0.86
			c-0.17-0.03-0.35,0-0.59,0c-0.34,1.93-0.67,3.85-1.01,5.76c-1.06,6-2.17,11.99-3.15,18.01c-0.51,3.13-0.82,6.3-1.15,9.45
			c-0.29,2.73-0.56,5.46-0.68,8.2c-0.05,1.15,0.23,2.33,0.43,3.48c0.25,1.46,0.56,2.92,0.83,4.38c0.04,0.19,0,0.4,0,0.66
			c-2.57-0.81-5.14-1.52-7.63-2.43c-2.53-0.93-5.13-1.14-7.76-1.29c-1.66-0.1-3.31-0.23-5.05-0.36c0.14-0.32,0.24-0.57,0.36-0.81
			c0.74-1.49,1.42-3.01,2.23-4.47c0.75-1.35,1.07-2.79,1.25-4.31c0.69-5.8,1.41-11.6,2.13-17.4c0.68-5.44,1.36-10.88,2.05-16.33
			c0.18-1.4,0.36-2.8,0.57-4.19c0.1-0.65,0.08-1.05-0.76-1.22c-2.28-0.46-4.52-1.18-6.81-1.54c-1.14-0.18-2.37,0.13-3.55,0.32
			C277.2,69.18,274.35,69.67,271.32,70.18z"/>
		<path class="st0" d="M176.56,67.69c-1.81-0.53-3.55-1.04-5.28-1.56c-0.76-0.23-1.54-0.4-2.27-0.7c-1.73-0.72-3.48-0.59-5.28-0.35
			c-2.36,0.32-4.74,0.5-7.11,0.77c-0.28,0.03-0.59,0.17-0.81,0.36c-1.62,1.42-3.24,2.85-4.82,4.31c-0.21,0.19-0.39,0.56-0.38,0.83
			c0.15,4.28,0.25,8.57,0.52,12.85c0.22,3.45,0.76,6.89,0.93,10.34c0.08,1.67,0.79,2.66,2.04,3.56c1.17,0.84,2.22,1.82,3.36,2.7
			c0.29,0.22,0.74,0.38,1.1,0.37c3.41-0.12,6.82-0.28,10.23-0.45c0.3-0.01,0.6-0.13,0.88-0.23c2.63-0.94,5.25-1.89,7.88-2.83
			c0.21-0.08,0.43-0.12,0.78-0.22c-0.36,1.48-0.7,2.86-1.04,4.24c-0.91,3.68-1.85,7.35-2.73,11.03c-0.13,0.53-0.35,0.63-0.83,0.63
			c-3.59,0.03-7.19,0.01-10.78,0.16c-3.23,0.13-6.45,0.45-9.67,0.69c-0.43,0.03-0.89-0.01-1.3,0.11c-1.77,0.52-2.92-0.27-4.12-1.52
			c-3.11-3.24-6.36-6.35-9.57-9.5c-0.38-0.38-0.58-0.76-0.62-1.32c-0.36-4.6-0.77-9.2-1.16-13.8c-0.27-3.2-0.49-6.4-0.81-9.59
			c-0.33-3.31-0.76-6.62-1.15-9.93c-0.02-0.18-0.03-0.36-0.08-0.53c-0.43-1.41,0.16-2.42,1.09-3.48c3.07-3.49,6.04-7.06,9.03-10.62
			c0.42-0.5,0.83-0.77,1.53-0.8c6.36-0.27,12.72-0.58,19.08-0.89c1.72-0.08,3.44-0.17,5.15-0.27c0.43-0.03,0.69,0.03,0.86,0.51
			c1.74,4.89,3.51,9.78,5.27,14.67C176.53,67.34,176.53,67.46,176.56,67.69z"/>
		<path class="st0" d="M264.08,116.18c-3.13-0.56-6.15-1.31-9.21-1.58c-3.05-0.27-6.15-0.06-9.3-0.06c0.04-0.18,0.07-0.37,0.13-0.55
			c0.34-1.02,0.62-2.07,1.06-3.04c1.33-2.92,1.52-6.01,1.61-9.15c0.16-5.9,0.33-11.81,0.66-17.7c0.24-4.2,0.75-8.38,1.14-12.56
			c0.32-3.52,0.65-7.05,0.95-10.57c0.03-0.36-0.09-0.76-0.22-1.11c-0.88-2.48-1.79-4.95-2.73-7.56c1.37,0.26,2.64,0.5,3.91,0.74
			c1.99,0.38,3.96,0.92,5.96,1.1c2.03,0.18,4.1-0.01,6.14-0.02c1.74-0.01,3.48,0,5.26,0c-0.57,1.54-1.08,3.18-1.78,4.74
			c-1.13,2.53-1.51,5.19-1.74,7.9c-0.25,3.04-0.61,6.07-0.81,9.12c-0.34,4.91-0.68,9.83-0.85,14.75c-0.15,4.36-0.45,8.7-1.07,13.03
			c-0.2,1.4-0.5,2.8-0.46,4.2c0.04,1.54,0.4,3.08,0.65,4.62C263.58,113.66,263.83,114.86,264.08,116.18z"/>
		<path class="st0" d="M64.26,131.52c-0.45,1.47-0.86,2.83-1.3,4.19c-0.04,0.13-0.26,0.25-0.41,0.29c-3.01,0.78-6.02,1.55-9.04,2.31
			c-3.02,0.76-6.03,1.53-9.06,2.24c-4.81,1.13-9.64,2.21-14.45,3.32c-2.64,0.61-5.27,1.25-8,1.9c0.05-0.6,0.06-1.11,0.13-1.62
			c0.35-2.65,0.76-5.29,1.04-7.95c0.1-0.95-0.07-1.93-0.17-2.89c-0.11-1.13-0.28-2.25-0.42-3.38c-0.2-1.65-0.32-3.32-0.6-4.96
			c-0.52-3.07-1.12-6.13-1.71-9.19c-0.33-1.7-0.7-3.39-1.09-5.08c-0.05-0.22-0.31-0.44-0.53-0.56c-3.04-1.59-6.08-3.16-9.25-4.8
			c1.26-1.19,2.48-2.35,3.76-3.57c1.67,0.78,3.37,1.59,5.08,2.38c1.23,0.57,2.44,1.21,3.71,1.68c1.07,0.39,0.89,1.33,1.06,2.05
			c0.77,3.32,1.48,6.66,2.14,10.01c0.31,1.58,0.45,3.19,0.67,4.79c0.21,1.55,0.41,3.1,0.6,4.65c0.12,0.98,0.25,1.96,0.31,2.94
			c0.08,1.22,0.19,2.45,0.14,3.67c-0.07,1.54-0.3,3.07-0.43,4.61c-0.05,0.53-0.01,1.08-0.01,1.71c2.13-0.45,4.23-0.89,6.32-1.35
			c3.02-0.66,6.04-1.27,9.04-2.02c3.16-0.79,6.27-1.77,9.43-2.58c2.89-0.74,5.81-1.37,8.72-2.02c1.15-0.26,2.31-0.47,3.47-0.69
			C63.67,131.57,63.91,131.56,64.26,131.52z"/>
		<path class="st0" d="M65.58,70.47c1.06-1.13,2.12-2.26,3.26-3.49c0.9,1.94,1.73,3.77,2.6,5.57c1.39,2.88,1.58,6.05,2.3,9.09
			c0.36,1.54,0.66,3.1,0.95,4.65c0.33,1.78,0.61,3.57,0.91,5.36c0.3,1.76,0.6,3.52,0.88,5.29c0.28,1.79,0.54,3.59,0.82,5.38
			c0.26,1.67,0.63,3.32,0.8,4.99c0.14,1.42,0.08,2.86,0.08,4.28c0,0.79-0.09,1.58-0.09,2.37c0,0.15,0.18,0.34,0.32,0.43
			c3.69,2.44,7.39,4.87,11.09,7.3c0.99,0.65,2.03,1.24,2.93,1.99c0.74,0.61,1.48,0.61,2.32,0.46c3.36-0.62,6.72-1.26,10.09-1.83
			c2.43-0.41,4.88-0.72,7.33-1.09c0.99-0.15,1.98-0.32,3.07-0.49c-0.71,1.37-1.36,2.65-2.04,3.91c-0.08,0.14-0.31,0.24-0.49,0.27
			c-3.42,0.58-6.86,1.09-10.27,1.72c-3.43,0.63-6.85,1.36-10.28,2.02c-0.32,0.06-0.76,0-1.03-0.18
			c-5.06-3.33-10.11-6.69-15.16-10.04c-0.27-0.18-0.53-0.4-0.83-0.51c-0.75-0.27-0.83-0.84-0.76-1.51c0.11-1.01,0.21-2.01,0.31-3.02
			c0.22-2.31,0.12-4.59-0.39-6.87c-0.38-1.69-0.56-3.43-0.84-5.14c-0.34-2.04-0.69-4.07-1.03-6.1c-0.33-1.94-0.62-3.88-0.98-5.81
			c-0.32-1.7-0.7-3.39-1.07-5.08c-0.5-2.3-1.02-4.61-1.54-6.9c-0.09-0.39-0.23-0.77-0.4-1.13C67.48,74.39,66.54,72.44,65.58,70.47z"
			/>
		<path class="st0" d="M278.87,120.89c2.09,0.16,4.09,0.31,6.08,0.48c2.35,0.2,4.71,0.29,7.04,0.65c1.92,0.3,3.79,0.93,5.69,1.43
			c0.63,0.16,1.26,0.33,1.88,0.54c0.19,0.06,0.43,0.25,0.47,0.42c0.27,1.1,0.5,2.2,0.73,3.31c0.02,0.12-0.01,0.24-0.01,0.3
			c-9.29-1.5-18.55-3-27.9-4.51c0.3-0.52,0.61-1.09,0.95-1.66c1.41-2.32,2.91-4.59,4.19-6.98c0.54-1,0.66-2.24,0.88-3.39
			c0.38-2,0.71-4.01,1.03-6.02c0.3-1.84,0.55-3.69,0.83-5.53c0.24-1.62,0.5-3.23,0.74-4.85c0.23-1.6,0.42-3.2,0.65-4.8
			c0.24-1.7,0.51-3.39,0.75-5.08c0.18-1.25,0.32-2.5,0.49-3.75c0.24-1.8,0.5-3.59,0.76-5.47c-0.77-0.12-1.55-0.26-2.34-0.37
			c-0.85-0.12-1.71-0.33-2.55-0.28c-1.02,0.06-2.03,0.31-3.02,0.56c-1.8,0.45-3.58,0.95-5.47,1.46c0.18-1.09,0.41-2.09,0.48-3.09
			c0.07-0.94,0.53-1.23,1.39-1.39c2.54-0.47,5.05-1.12,7.6-1.53c0.99-0.16,2.06,0.13,3.09,0.27c1.64,0.23,3.28,0.51,4.92,0.77
			c0.07,0.01,0.14,0.06,0.18,0.08c-0.35,2.49-0.68,4.96-1.05,7.42c-0.28,1.92-0.62,3.83-0.9,5.74c-0.29,1.97-0.51,3.95-0.79,5.93
			c-0.28,1.92-0.61,3.83-0.89,5.74c-0.24,1.65-0.42,3.3-0.65,4.95c-0.23,1.67-0.48,3.34-0.72,5.01c-0.17,1.22-0.45,2.44-0.48,3.67
			c-0.06,2.5-1.19,4.59-2.35,6.69C279.97,118.67,279.45,119.75,278.87,120.89z"/>
		<path class="st0" d="M178.63,119.4c0.7-2.23,1.34-4.28,1.99-6.34c0.74-2.34,1.48-4.68,2.2-7.03c0.07-0.21,0.04-0.46,0.04-0.69
			c0-6.68,0.01-13.35-0.01-20.03c0-1.81-0.09-3.63-0.15-5.44c-0.05-1.61-0.1-3.21-0.15-4.82c-0.05-1.79-0.1-3.57-0.16-5.36
			c-0.04-1.25-0.15-2.5-0.14-3.74c0.03-2.81-0.32-5.52-1.68-8.05c-0.57-1.05-0.93-2.21-1.42-3.38c1.47-0.1,2.9-0.2,4.43-0.3
			c0.51,1.38,0.96,2.87,1.59,4.28c0.82,1.84,0.93,3.74,0.94,5.71c0.01,3.39,0.18,6.79,0.28,10.18c0.05,1.61,0.13,3.21,0.15,4.82
			c0.06,4.56,0.14,9.12,0.15,13.68c0,3.56-0.09,7.12-0.14,10.68c-0.03,2.24-0.6,4.37-1.28,6.49c-0.51,1.6-0.99,3.21-1.48,4.81
			c-0.04,0.12,0,0.25,0,0.48c1.08-0.06,2.14-0.09,3.19-0.18c0.8-0.06,1.6-0.21,2.41-0.29c1.76-0.16,3.53-0.38,5.3-0.42
			c1.17-0.02,2.35,0.26,3.53,0.38c1.21,0.13,2.42,0.25,3.63,0.33c0.44,0.03,0.67,0.1,0.81,0.58c0.33,1.23,0.75,2.45,1.16,3.76
			c-0.83-0.06-1.58-0.1-2.32-0.17c-1.61-0.15-3.22-0.32-4.84-0.46c-1.77-0.16-3.54-0.46-5.3-0.42c-2.33,0.05-4.64,0.38-6.97,0.56
			C182.52,119.18,180.64,119.28,178.63,119.4z"/>
		<path class="st0" d="M171.04,115.97c-0.52,1.3-1.02,2.63-1.59,3.93c-0.07,0.15-0.46,0.22-0.71,0.22
			c-3.54,0.01-7.09-0.05-10.63,0.03c-1.58,0.04-3.16,0.36-4.74,0.54c-1.11,0.13-2.21,0.23-3.32,0.36c-1.58,0.19-3.15,0.41-4.73,0.58
			c-0.23,0.03-0.56-0.09-0.73-0.26c-4.21-4.18-8.41-8.36-12.57-12.6c-0.36-0.37-0.43-1.1-0.48-1.67c-0.19-2.64-0.31-5.28-0.48-7.92
			c-0.14-2.1-0.31-4.2-0.46-6.3c-0.16-2.25-0.27-4.51-0.48-6.76c-0.27-2.87-0.61-5.73-0.92-8.6c-0.09-0.85-0.23-1.7-0.29-2.56
			c-0.02-0.29,0.04-0.67,0.22-0.87c0.99-1.1,2.02-2.15,3.11-3.28c0.08,0.29,0.18,0.49,0.19,0.69c0.11,1.73,0.18,3.45,0.32,5.18
			c0.22,2.65,0.51,5.29,0.75,7.94c0.13,1.39,0.19,2.79,0.32,4.17c0.18,1.89,0.41,3.77,0.6,5.66c0.13,1.34,0.2,2.68,0.32,4.02
			c0.2,2.22,0.38,4.44,0.65,6.65c0.04,0.33,0.46,0.65,0.75,0.92c1.14,1.06,2.31,2.08,3.44,3.15c1.58,1.5,3.13,3.02,4.7,4.53
			c1.01,0.97,2.05,1.93,3.05,2.91c0.49,0.48,1.05,0.67,1.72,0.58c2.1-0.26,4.21-0.53,6.32-0.77c3.27-0.37,6.55-0.56,9.85-0.48
			C167.14,116.01,169.03,115.97,171.04,115.97z"/>
		<path class="st0" d="M260.94,118.23c0.29,1.33,0.59,2.64,0.94,4.23c-8.09-1.55-16.07-2.08-24.27-2.1c0.18-0.48,0.3-0.79,0.41-1.1
			c1.12-3.22,2.26-6.44,3.35-9.67c0.15-0.45,0.17-0.94,0.2-1.42c0.12-1.83,0.2-3.66,0.32-5.49c0.14-2.13,0.3-4.25,0.46-6.38
			c0.15-2.05,0.32-4.1,0.46-6.15c0.16-2.38,0.31-4.77,0.46-7.15c0.16-2.49,0.31-4.97,0.46-7.46c0.1-1.7,0.2-3.4,0.31-5.1
			c0.09-1.47,0.08-2.96,0.33-4.4c0.39-2.26-0.6-4.24-1.05-6.34c-0.26-1.22-0.64-2.42-0.96-3.64c-0.04-0.14,0-0.29,0-0.47
			c1.39,0.09,2.72,0.16,4.05,0.29c0.2,0.02,0.49,0.31,0.54,0.52c0.43,1.94,0.83,3.88,1.19,5.83c0.11,0.6,0.09,1.23,0.05,1.84
			c-0.13,2.13-0.3,4.25-0.46,6.38c-0.15,2.02-0.31,4.05-0.46,6.07c-0.16,2.15-0.31,4.31-0.46,6.46c-0.1,1.47-0.22,2.94-0.3,4.41
			c-0.12,2.21-0.21,4.43-0.31,6.64c-0.1,2.03-0.21,4.07-0.3,6.1c-0.11,2.24-0.03,4.51-0.36,6.71c-0.28,1.84-1.01,3.61-1.57,5.4
			c-0.46,1.46-0.96,2.9-1.48,4.44C248.67,116.98,254.84,116.97,260.94,118.23z"/>
		<path class="st0" d="M322.33,94.99c1.44,1.96,2.84,3.89,4.29,5.79c0.74,0.97,0.54,2.05,0.43,3.08c-0.21,1.95-0.57,3.88-0.87,5.82
			c-0.27,1.77-0.54,3.53-0.81,5.3c-0.24,1.57-0.42,3.15-0.75,4.69c-0.17,0.82,0.1,1.37,0.54,1.99c3.03,4.3,6.02,8.62,9.05,12.91
			c0.16,0.23,0.5,0.41,0.78,0.48c4.37,1.13,8.73,2.29,13.12,3.33c2.86,0.68,5.75,1.19,8.63,1.77c0.39,0.08,0.78,0.15,1.38,0.26
			c-1.17,0.71-2.31,1.18-3.18,1.95c-1.44,1.28-2.97,0.93-4.53,0.54c-4.33-1.08-8.65-2.18-12.97-3.3c-1.82-0.47-3.63-0.99-5.44-1.46
			c-0.69-0.18-1.29-0.43-1.72-1.06c-2.01-2.89-4.06-5.76-6.09-8.63c-1.22-1.72-2.48-3.42-3.65-5.18c-0.23-0.34-0.25-0.91-0.18-1.34
			c0.37-2.41,0.81-4.81,1.2-7.22c0.34-2.14,0.62-4.29,0.95-6.43c0.22-1.44,0.48-2.87,0.75-4.3c0.15-0.79-0.5-1.13-0.86-1.59
			c-1.14-1.48-2.37-2.89-3.53-4.36c-0.11-0.14-0.11-0.59,0.01-0.67C319.99,96.56,321.16,95.79,322.33,94.99z"/>
		<path class="st0" d="M138.56,144.88c-0.16,0.73-0.31,1.24-0.37,1.76c-0.28,2.15-0.54,4.31-0.78,6.47
			c-0.08,0.76-0.62,1.38-1.45,1.36c-0.78-0.02-1.58-0.12-2.33-0.35c-0.53-0.16-0.93-0.46-0.75-1.3c0.62-2.87,1.08-5.78,1.59-8.68
			c0.25-1.39,0.51-2.77,0.7-4.16c0.1-0.73-0.03-1.5,0.09-2.22c0.19-1.13,0.46-2.26,0.77-3.36c0.09-0.33,0.43-0.6,0.64-0.88
			c0.85,0.24,1.18,0.9,1.48,1.52c1.08,2.21,2.08,4.46,3.2,6.66c0.67,1.32,1.48,2.56,2.26,3.89c1.21-1.41,2.02-2.96,2.74-4.57
			c1.03-2.3,2.13-4.56,3.24-6.82c0.09-0.19,0.54-0.4,0.71-0.32c0.41,0.17,0.97,0.44,1.08,0.79c0.36,1.16,0.67,2.36,0.79,3.57
			c0.23,2.39,0.51,4.76,0.98,7.12c0.41,2.02,0.71,4.06,1.04,6.1c0.12,0.75,0.25,1.49,0.3,2.25c0.04,0.65-0.35,0.87-0.99,0.78
			c-0.46-0.07-0.95-0.08-1.4,0c-1.08,0.2-1.79-0.15-2.06-1.26c-0.33-1.34-0.77-2.72-0.7-4.06c0.07-1.32-0.49-2.37-0.85-3.6
			c-0.56,1.2-1.13,2.39-1.68,3.59c-0.76,1.64-1.52,3.29-2.27,4.94c-0.21,0.46-0.49,0.55-0.89,0.25c-0.62-0.44-1.18-0.87-1.36-1.72
			c-0.13-0.61-0.61-1.15-0.89-1.74c-0.8-1.71-1.57-3.43-2.36-5.14C138.93,145.52,138.8,145.31,138.56,144.88z"/>
		<path class="st0" d="M255.88,134.05c1.28-0.19,2.05,0.37,2.74,1.19c0.57,0.67,1.26,1.24,1.86,1.89c0.93,1.01,1.8,2.08,2.77,3.05
			c1.12,1.11,2.32,2.14,3.48,3.2c0.25,0.23,0.47,0.48,0.7,0.72c0.06-0.04,0.12-0.08,0.18-0.12c0-1.98,0.14-3.97-0.05-5.94
			c-0.11-1.09-0.14-2.12,0.07-3.17c0.13-0.65,0.51-1.08,1.28-1.02c0.56,0.05,1.13,0,1.69,0.01c0.88,0.01,1.44,0.58,1.65,1.45
			c0.24,1.02,0.31,2.01,0.17,3.07c-0.11,0.89,0.14,1.83,0.1,2.74c-0.04,1.24-0.25,2.47-0.29,3.71c-0.04,1.18,0.05,2.36,0.09,3.54
			c0,0.1,0.06,0.2,0.06,0.29c0.06,1.53,0.14,3.06,0.14,4.59c0,0.39-0.2,0.85-0.45,1.16c-0.57,0.73-1.09,0.6-1.7-0.05
			c-1.58-1.7-3.25-3.31-4.85-4.98c-0.68-0.71-1.26-1.52-1.91-2.25c-0.88-0.99-1.78-1.96-2.69-2.92c-0.1-0.11-0.29-0.13-0.61-0.26
			c0.09,0.67,0.19,1.18,0.21,1.7c0.03,0.93,0.01,1.85,0.01,2.78c0,0.44,0.03,0.88-0.01,1.32c-0.14,1.43-0.3,2.86-0.45,4.29
			c-0.05,0.48-0.33,0.67-0.78,0.63c-0.73-0.05-1.47-0.07-2.19-0.19c-0.46-0.08-0.78-0.31-0.93-0.91c-0.36-1.37-0.13-2.72-0.03-4.06
			c0.12-1.59,0.21-3.16-0.01-4.75c-0.13-0.9-0.17-1.82-0.21-2.73c-0.07-1.81-0.13-3.63-0.15-5.44
			C255.75,135.73,255.84,134.9,255.88,134.05z"/>
		<path class="st0" d="M213.86,92.16c-0.8-0.08-1.53-0.19-2.26-0.22c-1.5-0.07-3.01-0.12-4.51-0.16c-0.55-0.01-0.84-0.17-0.81-0.8
			c0.05-0.89,0.01-1.79,0.01-2.7c3.84,0.19,7.61,0.37,11.35,0.55c-0.14,1.88-0.26,3.64-0.41,5.41c-0.18,2.12-0.4,4.23-0.6,6.35
			c-0.06,0.68-0.16,1.37-0.16,2.05c0.01,4.11-1.11,8.02-2.09,11.95c-0.08,0.31-0.16,0.63-0.27,1.08c0.5,0,0.95,0.01,1.39,0
			c3.69-0.05,7.38-0.2,11.06-0.11c1.74,0.05,3.47,0.57,5.2,0.89c0.14,0.03,0.33,0.19,0.35,0.32c0.21,1.08,0.39,2.17,0.57,3.23
			c-1.74,0-3.42,0-5.09,0c-0.69,0-1.39,0-2.08-0.01c-2.56-0.05-5.12-0.09-7.67-0.16c-1.48-0.04-2.96-0.09-4.44-0.16
			c-1.17-0.05-2.33-0.15-3.62-0.23c0.24-0.98,0.46-1.95,0.71-2.91c0.72-2.74,1.48-5.47,2.16-8.22c0.2-0.83,0.22-1.7,0.27-2.56
			c0.12-1.96,0.2-3.91,0.32-5.87c0.14-2.33,0.3-4.66,0.47-7C213.7,92.66,213.79,92.44,213.86,92.16z"/>
		<path class="st0" d="M183.63,144.05c-0.35-0.6-0.74-1.18-1.05-1.81c-0.43-0.88-0.89-1.76-1.16-2.7c-0.23-0.79-0.75-1.29-1.26-1.85
			c-0.91-1.01-1.59-2.14-1.43-3.82c1.44,0,2.91-0.17,4.31,0.08c0.63,0.11,1.17,1.03,1.65,1.66c0.34,0.45,0.49,1.04,0.76,1.55
			c0.37,0.71,0.77,1.4,1.2,2.17c0.68-1.29,1.27-2.41,1.86-3.53c0.62-1.16,1.48-1.99,2.87-2.05c1.29-0.06,2.61-0.52,3.85,0.27
			c0.04,0.03,0.06,0.08,0.1,0.13c-0.23,1.23-1.08,2.11-1.76,3.1c-1.23,1.78-2.39,3.6-3.57,5.41c-0.43,0.66-0.21,1.36,0.11,1.94
			c1.14,2.06,2.35,4.09,3.55,6.12c0.32,0.54,0.72,1.03,1.07,1.55c0.12,0.18,0.28,0.4,0.28,0.6c0,1.48,0.31,1.63-1.35,1.62
			c-2.89-0.02-4.21-0.94-5.3-3.6c-0.38-0.93-0.99-1.77-1.6-2.83c-0.68,1.13-1.21,2.03-1.76,2.92c-0.57,0.92-1.13,1.85-1.77,2.71
			c-0.43,0.58-1.04,0.73-1.81,0.6c-0.59-0.1-1.24,0.12-1.86,0.19c-0.63,0.08-1-0.34-1.15-0.81c-0.13-0.4-0.14-0.98,0.06-1.33
			c1.5-2.59,3.05-5.14,4.6-7.7C183.22,144.44,183.43,144.27,183.63,144.05z"/>
		<path class="st0" d="M164.52,141.09c1.04,0,1.97-0.02,2.89,0.01c1.07,0.03,2.16-0.02,3.19,0.21c0.41,0.09,0.86,0.81,0.96,1.31
			c0.16,0.79,0.07,1.64,0.02,2.45c-0.01,0.17-0.33,0.47-0.51,0.46c-1.56-0.01-3.11-0.09-4.67-0.12c-0.59-0.01-1.18,0.06-1.91,0.1
			c0.06,1.11,0.13,2.29,0.21,3.69c1.04,0.01,2.09,0.03,3.14,0.02c1.02-0.01,2.04-0.12,3.06-0.09c0.75,0.03,1.4,0.89,1.46,1.84
			c0.05,0.74,0.04,1.49,0,2.23c-0.04,0.63-0.34,1.05-1.06,0.99c-1.17-0.1-2.34-0.22-3.51-0.28c-0.5-0.03-1,0.14-1.5,0.12
			c-1.06-0.04-2.12-0.16-3.18-0.23c-0.21-0.01-0.43,0.04-0.65,0.09c-1.22,0.27-2.26-0.54-2.25-1.79c0.01-1.04,0.14-2.09,0.13-3.13
			c-0.01-1.12-0.15-2.23-0.18-3.35c-0.03-1.06-0.02-2.13-0.01-3.19c0.01-0.79,0.03-1.59,0.05-2.38c0.05-1.48,0.11-2.96,0.15-4.44
			c0.01-0.35-0.05-0.7-0.11-1.05c-0.13-0.64,0.26-1.2,0.92-1.17c2.69,0.13,5.38,0.31,8.07,0.44c0.63,0.03,1.27-0.06,1.89-0.15
			c0.94-0.14,1.64,0.3,1.71,1.22c0.06,0.82,0.05,1.64,0,2.46c-0.04,0.58-0.38,0.87-1.02,0.8c-1.53-0.17-3.06-0.38-4.6-0.45
			c-1.99-0.09-2.87,0.7-2.69,2.7C164.54,140.61,164.52,140.81,164.52,141.09z"/>
		<path class="st0" d="M238.1,151.23c-0.22,0.49-0.43,1.17-0.81,1.75c-0.78,1.2-2.09,1.38-3.37,1.49c-0.27,0.02-0.73-0.3-0.85-0.57
			c-0.43-0.92-0.54-1.8,0-2.85c1.2-2.34,2.18-4.8,3.27-7.2c0.42-0.91,0.97-1.77,1.36-2.69c0.91-2.15,1.75-4.32,2.66-6.47
			c0.2-0.48,0.53-0.92,0.87-1.31c0.44-0.49,0.95-0.45,1.24,0.13c0.8,1.57,1.56,3.15,2.3,4.75c0.88,1.91,1.72,3.84,2.57,5.77
			c1.47,3.3,2.93,6.61,4.48,10.12c-1.18,0.05-2.25,0.09-3.32,0.15c-0.16,0.01-0.32,0.08-0.47,0.14c-0.92,0.42-1.2,0.35-1.69-0.55
			c-0.43-0.8-0.9-1.59-1.21-2.44c-0.26-0.7-0.73-0.66-1.27-0.62C241.96,150.95,240.04,151.09,238.1,151.23z M241.69,142.55
			c-0.6,1.29-1.23,2.64-1.87,4c0.96,0.09,1.79,0.18,2.62,0.23c0.6,0.04,0.81-0.34,0.56-0.96
			C242.56,144.71,242.11,143.6,241.69,142.55z"/>
		<path class="st0" d="M211.31,143.86c0.16-3.19,0.88-5.85,2.98-7.88c1.55-1.5,3.43-2.59,5.57-3.01c1.57-0.31,3.12,0.19,4.61,0.69
			c1.05,0.35,2.09,0.86,3,1.48c0.76,0.52,0.73,1.02,0.19,1.76c-0.45,0.61-0.92,1.21-1.45,1.75c-0.41,0.42-0.8,0.76-1.41,0.02
			c-0.35-0.42-1.17-0.57-1.79-0.62c-1.71-0.15-3.41-0.12-4.85,1.05c-1,0.82-1.93,1.63-1.72,3.15c0.18,1.22,0.04,2.5,0.33,3.69
			c0.43,1.77,2.18,2.94,4.08,3.03c1.57,0.08,2.95-0.59,4.36-1.09c0.52-0.19,0.88-0.17,1.28,0.25c0.93,0.97,1.62,2.07,1.79,3.41
			c0.08,0.68-0.34,1.25-0.99,1.46c-1.38,0.45-2.77,0.85-4.17,1.2c-0.78,0.19-1.6,0.22-2.4,0.31c-0.18,0.02-0.38,0.05-0.54-0.01
			c-2.03-0.76-4.12-1.48-5.69-3c-1.5-1.45-2.32-3.37-2.81-5.4C211.49,145.25,211.4,144.39,211.31,143.86z"/>
		<path class="st0" d="M97.94,61.98c1.38-0.3,2.66-0.58,4.05-0.88c0.9,1.97,1.91,3.89,2.63,5.91c0.43,1.21,0.38,2.59,0.57,3.88
			c0.23,1.65,0.5,3.29,0.73,4.93c0.23,1.62,0.43,3.25,0.66,4.87c0.24,1.72,0.5,3.44,0.74,5.16c0.23,1.65,0.5,3.3,0.63,4.95
			c0.17,2.31,0.22,4.63,0.33,6.95c0.01,0.25,0.12,0.49,0.14,0.74c0.08,0.98,0.05,1.88-0.88,2.59c-0.89,0.67-1.65,1.51-2.54,2.34
			c-0.06-0.21-0.12-0.31-0.12-0.42c-0.06-2.48-0.05-4.96-0.18-7.44c-0.09-1.66-0.36-3.31-0.57-4.96c-0.21-1.65-0.42-3.3-0.65-4.95
			c-0.22-1.62-0.48-3.24-0.71-4.86c-0.23-1.6-0.45-3.2-0.67-4.79c-0.24-1.65-0.54-3.28-0.71-4.94c-0.25-2.45-1.64-4.46-2.44-6.69
			C98.68,63.6,98.32,62.85,97.94,61.98z"/>
		<path class="st0" d="M296.28,146.49c-1.13,0-2.13,0-3.21,0c0,1.01,0,2,0,3.06c-1.12,0-2.15,0-3.25,0c0,1.05,0,2.01,0,3.04
			c-1.14,0-2.23,0-3.34,0c0-1.03,0-2.06,0-3.17c-0.99,0-2.03,0-3.12,0c0-1.09,0-2.11,0-3.21c-1.04,0-2.02,0-3.06,0
			c0-1.17,0-2.26,0-3.4c1.03,0,2.04,0,3.15,0c0-1.04,0-2.02,0-3.04c1.11,0,2.14,0,3.25,0c0-0.98,0-2.02,0-3.11c1.16,0,2.25,0,3.39,0
			c0,1.04,0,2.06,0,3.19c0.84,0,1.62,0.03,2.4-0.01c0.55-0.02,0.73,0.19,0.71,0.72c-0.03,0.81-0.01,1.63-0.01,2.53
			c0.9,0,1.74,0,2.58,0c0.46,0,0.68,0.04,0.54,0.65c-0.15,0.63-0.04,1.33-0.04,1.99C296.28,145.98,296.28,146.22,296.28,146.49z
			 M289.8,143.3c-0.84-0.07-1.62-0.13-2.4-0.21c-0.48-0.05-0.65,0.22-0.66,0.62c-0.02,0.67-0.03,1.34,0.01,2
			c0.01,0.16,0.24,0.44,0.38,0.44c0.88,0.04,1.77,0.02,2.67,0.02C289.8,145.16,289.8,144.27,289.8,143.3z"/>
		<path class="st0" d="M121.66,142.78c1.14,0,2.14,0,3.26,0c0,1.11,0,2.19,0,3.35c-0.91,0-1.94,0-3.05,0c0,1.11,0,2.15,0,3.27
			c-1.07,0-2.05,0-3.09,0c0,1.1,0,2.12,0,3.19c-1.14,0-2.23,0-3.4,0c0-0.98,0-1.96,0-3c-1.1,0-2.12,0-3.22,0c0-1.04,0-2.02,0-3.09
			c-1.12,0-2.15,0-3.23,0c0-1.15,0-2.22,0-3.37c0.98,0,1.96,0,3.04,0c0-0.89,0.03-1.71-0.01-2.52c-0.03-0.56,0.16-0.79,0.74-0.76
			c0.81,0.04,1.63,0.01,2.43,0.01c0-1.1,0-2.13,0-3.2c1.06,0,2.13,0,3.28,0c0,1.03,0,2.07,0,3.12c1.11,0,2.13,0,3.24,0
			C121.66,140.73,121.66,141.72,121.66,142.78z M115.42,143.29c0,0.99,0,1.92,0,2.83c1.04,0,2.02,0,2.97,0c0-1.04,0-2.02,0-3.06
			C117.37,143.14,116.41,143.21,115.42,143.29z"/>
		<path class="st0" d="M205.37,153.88c-1.39,0-2.66,0-4,0c-0.43-1.05-0.36-2.26-0.22-3.51c0.11-0.95-0.11-1.93-0.09-2.89
			c0.02-0.78,0.24-1.55,0.25-2.33c0.01-1.06-0.11-2.13-0.13-3.19c-0.03-1.19-0.01-2.38-0.02-3.57c-0.01-0.76,0.06-1.54-0.08-2.28
			c-0.28-1.47,0.42-2.36,1.89-2.27c0.36,0.02,0.73,0.02,1.09,0c0.92-0.05,1.2,0.1,1.28,1.02c0.08,0.87,0.01,1.75,0.03,2.63
			c0.02,0.73,0.1,1.47,0.13,2.2c0.02,0.51,0,1.03,0.02,1.54c0.04,1.05,0.1,2.09,0.14,3.14c0.02,0.52,0.02,1.03,0.01,1.55
			c-0.04,1.25-0.16,2.49-0.13,3.74c0.02,1.19,0.21,2.37,0.24,3.55C205.78,153.48,205.44,153.76,205.37,153.88z"/>
		<path class="st0" d="M173.12,69.36c0,1.32,0,2.59,0,3.98c-1.31-0.31-2.57-0.63-3.83-0.9c-1.64-0.35-3.28-0.89-4.94-0.94
			c-1.82-0.06-3.66,0.35-5.49,0.54c-1.16,0.12-2.32,0.22-3.48,0.33c-0.52,0.05-1.05,0.1-1.7,0c0.39-0.4,0.78-0.81,1.18-1.2
			c0.72-0.69,1.5-1.31,2.17-2.04c0.54-0.59,1.12-0.98,1.92-1.06c1.58-0.16,3.19-0.21,4.75-0.51c2.55-0.49,4.78,0.71,7.14,1.19
			C171.59,68.9,172.33,69.14,173.12,69.36z"/>
		<path class="st0" d="M211.43,54.64c1.4,0,2.63-0.02,3.86,0.02c0.19,0.01,0.47,0.26,0.53,0.45c0.91,3.05,1.36,6.15,1.26,9.35
			c-0.07,2.41-0.01,4.82-0.01,7.23c0,0.25,0,0.5,0,0.78c-1.3,0-2.52,0-3.8,0c-0.02-0.17-0.05-0.33-0.04-0.5
			c0.04-0.53,0.13-1.06,0.14-1.58c0.06-2.25,0.02-4.5,0.18-6.74c0.16-2.13-0.6-4.01-1.2-5.96
			C212.06,56.72,211.77,55.74,211.43,54.64z"/>
		<path class="st0" d="M309.31,75.5c1.71,0.3,3.4,0.39,4.93,0.92c1.66,0.58,3.15,1.64,4.77,2.38c0.9,0.41,1.08,1,1.01,1.89
			c-0.08,1.12-0.02,2.25-0.02,3.54c-0.85-0.49-1.61-0.93-2.37-1.39c-1.31-0.79-2.57-1.69-3.95-2.34c-0.83-0.39-1.84-0.43-2.78-0.59
			c-0.74-0.13-1.49-0.21-2.27-0.32C308.87,78.22,309.09,76.9,309.31,75.5z"/>
		<path class="st0" d="M328.42,83.38c0.45-2.46,0.9-4.91,1.35-7.39c1.27-0.79,2.56-1.6,3.98-2.49c-0.24,1.2-0.44,2.27-0.65,3.33
			c-0.25,1.23-0.51,2.45-0.75,3.68c-0.11,0.54-0.32,0.95-0.85,1.24c-0.97,0.51-1.9,1.11-2.85,1.68
			C328.57,83.42,328.5,83.4,328.42,83.38z"/>
		<path class="st0" d="M359.02,118.63c0.8-2.89,1.62-5.65,2.3-8.44c0.42-1.73,0.62-3.51,0.92-5.27c0.53-3.07,1.03-6.15,1.59-9.22
			c0.46-2.52,1-5.02,1.46-7.54c0.05-0.29-0.11-0.73-0.33-0.93c-0.86-0.82-1.83-1.54-2.67-2.38c-0.92-0.92-2.14-1.03-3.27-1.38
			c-1.62-0.49-3.25-0.92-5.04-1.42c1.47-0.88,2.77-1.7,4.12-2.41c0.36-0.19,0.92-0.1,1.37-0.01c1.5,0.28,3,0.59,4.5,0.92
			c0.26,0.06,0.53,0.2,0.72,0.38c1.01,0.93,2,1.9,3.01,2.84c0.69,0.65,1.41,1.26,2.06,1.94c0.18,0.19,0.28,0.58,0.23,0.84
			c-0.56,2.96-1.17,5.91-1.75,8.87c-0.42,2.17-0.85,4.34-1.21,6.52c-0.35,2.09-0.57,4.2-0.97,6.27c-0.33,1.72-0.84,3.41-1.27,5.11
			c-0.23,0.92-0.44,1.85-0.74,2.76c-0.09,0.28-0.39,0.56-0.67,0.68C361.98,117.39,360.54,117.98,359.02,118.63z"/>
	</g>
</g>
</svg>
