<?xml version="1.0" encoding="utf-8"?>
<!-- Generator: Adobe Illustrator 23.0.3, SVG Export Plug-In . SVG Version: 6.00 Build 0)  -->
<svg version="1.1" id="Layer_1" xmlns="http://www.w3.org/2000/svg" xmlns:xlink="http://www.w3.org/1999/xlink" x="0px" y="0px"
	 viewBox="0 0 800 800" style="enable-background:new 0 0 800 800;" xml:space="preserve">
<style type="text/css">
	.st0{fill:#FFFFFF;}
	.st1{fill-rule:evenodd;clip-rule:evenodd;fill:#FFFFFF;}
</style>
<g>
	<path class="st0" d="M539.2,324c15.7-3.7,26.2-4.4,43.3-4.6c-1.9-13.7-5.4-28.2-6.5-40.4c-6.7,0.7-11.2,1.4-17.3,0.1
		c-2.5-0.6-32.2-21.7-63.2-43.2c41.6-80.9,90.8-31.6,90.8-31.6c12.3-53.3-45.2-88.9-45.2-88.9c-38.5,28.3-63.4,77.7-73.6,101.2
		c-16.2-11-30.4-20.2-38.4-24.3c-8.5-4.4-17.8-9.4-27-10.9c-1.1-0.2-3.6-0.2-3.6-0.2c-1.1,0-2.2,0.1-3.3,0.3
		c-9.2,1.6-18.4,6.7-26.9,11.2c-7.9,4.2-22,13.6-38,24.8c-10.5-23.4-36-72.4-74.9-100.2c0,0-57.1,36.4-44,89.5
		c0,0,48.5-49.9,91.2,30.4c-30.8,22-60.2,43.5-62.7,44.1c-6.1,1.4-10.7,0.7-17.3,0.1c-1,12.2-4.2,26.7-6,40.5
		c17.1,0,27.6,0.6,43.4,4.1c-34.7,25.7-69.8,51-104,77.2c24.4,36.4,71.3,60.8,109.2,66.2c11.4-16.7,19.5-36.6,25.1-58.9
		c11.6,16.6,45.9,53.9,110.2,53.5c59.4-0.4,98.1-38.2,109.5-54.9c5.9,22.3,14.3,42,25.9,58.6c37.9-6,84.4-31,108.4-67.7
		C609.6,374.1,574.2,349.3,539.2,324 M400.4,444.9l-0.3,0c-61.9,0.4-112.8-50.7-117-115.6l44.1-0.3L293,290.1l5.2-4.5l36.8,43.4
		l8.1-0.1L314.6,264l6.4-2.7l28.4,67.6l166.6-1.1C512.6,392.7,462.3,444.5,400.4,444.9"/>
	<g>
		<polygon class="st0" points="265.6,635.1 278.8,635 288.5,666.7 288.6,666.7 288.4,635 299.1,634.9 299.4,683.8 286.4,683.9 
			276.1,650.2 276,650.2 276.2,683.9 266,684 		"/>
		<path class="st0" d="M325.3,684.5c-15.1,0.1-17.2-9.7-17.3-25.3c-0.1-15.5,1.9-25.4,17-25.5c16.3-0.1,17.2,11.7,17.3,25.3
			C342.4,672.6,341.6,684.4,325.3,684.5 M325.2,676.9c4.7,0,5.3-4.3,5.2-17.7c-0.1-13.4-0.8-17.7-5.5-17.7c-4.5,0-5.2,4.3-5.1,17.8
			C320,672.6,320.7,676.9,325.2,676.9"/>
		<path class="st0" d="M367.3,684.3c-15.1,0.1-17.2-9.7-17.3-25.3c-0.1-15.5,1.9-25.4,17-25.5c16.3-0.1,17.3,11.7,17.3,25.3
			C384.4,672.3,383.6,684.2,367.3,684.3 M367.2,676.6c4.7,0,5.3-4.3,5.2-17.7c-0.1-13.4-0.8-17.7-5.5-17.7c-4.5,0-5.2,4.3-5.1,17.8
			C362,672.3,362.7,676.6,367.2,676.6"/>
		<path class="st0" d="M392.9,634.3l17-0.1c11.3-0.1,16.2,5.8,16.4,22.7c0.1,17.7-2.1,26-17.2,26.1l-15.9,0.1L392.9,634.3z
			 M404.7,674.6l3.1,0c5.3,0,7.2-2.2,7.1-16.8c-0.1-11.9-1.1-15.1-7.1-15.1l-3.2,0L404.7,674.6z"/>
		<polygon class="st0" points="434.9,634 446.4,633.9 446.7,673.5 463.3,673.4 463.3,682.7 435.2,682.9 		"/>
		<polygon class="st0" points="469.3,633.8 497.6,633.6 497.6,642.9 480.9,643 480.9,652.8 496.6,652.7 496.7,662 481,662.1 
			481.1,673.3 498.6,673.1 498.6,682.5 469.6,682.6 		"/>
		<path class="st0" d="M516,667.4l0,1.7c0,3.7,1.1,6.5,5,6.5c4,0,5.2-3,5.2-5.8c-0.1-10.5-21-4.5-21.2-22.8
			c-0.1-7.8,4.1-14.4,15.9-14.5c11.5-0.1,15.6,5.7,15.7,13.2l0,1.2l-11.1,0.1c0-2.3-0.3-4-1-5.1c-0.7-1.2-1.8-1.7-3.5-1.7
			c-2.9,0-4.6,1.7-4.5,5.3c0.1,10.2,21,4.9,21.1,22.2c0.1,11.1-6.1,15.6-16.6,15.6c-8.3,0.1-16.1-2.4-16.2-12.6l0-3.1L516,667.4z"/>
	</g>
	<g>
		<polygon class="st0" points="208.5,536.5 227.4,536.4 227.6,568 227.8,568 245.2,536.2 265.6,536.1 244.8,570.8 268.7,616.3 
			247.5,616.4 232.8,586.3 227.8,594.1 227.9,616.5 209.1,616.7 		"/>
		<path class="st0" d="M292.3,535.9l23.6-0.2l20.5,80.1l-19.5,0.1l-3-15.2l-19.2,0.1l-2.7,15.3l-19.5,0.1L292.3,535.9z M303.8,550.5
			l-0.2,0l-6.4,35.8l13.7-0.1L303.8,550.5z"/>
		<path class="st0" d="M346.4,535.6l29.3-0.2c13.7-0.1,22.8,6.2,22.9,19.6c0.1,9.3-4.8,16.7-12.5,18.2l0,0.2c6,0.9,14.9,3.4,15,19.8
			c0.1,9.4-4,22.3-26.4,22.4l-27.8,0.2L346.4,535.6z M365.5,567.5l5.2,0c6.5,0,9.2-3.8,9.1-9.5c0-4.2-2.3-8.6-9.1-8.6l-5.3,0
			L365.5,567.5z M365.7,601.7l5.7,0c7.6-0.1,10.2-4.9,10.2-10.5c-0.1-7.9-4.1-11.2-10-11.2l-6.1,0L365.7,601.7z"/>
		<path class="st0" d="M467.5,588.5c0.1,15.7-4.3,28.1-26.2,28.3c-21.9,0.1-26.5-12.2-26.6-27.9l-0.4-53.7l18.9-0.1l0.4,59.2
			c0,6.3,2.5,10,7.6,10c5.1,0,7.5-3.8,7.5-10.1l-0.4-59.2l18.9-0.1L467.5,588.5z"/>
		<polygon class="st0" points="494.1,549.9 477.2,550 477.1,534.7 529.7,534.4 529.8,549.6 512.9,549.7 513.4,614.7 494.5,614.8 		
			"/>
		<path class="st0" d="M565.6,615.9c-24.8,0.2-28.3-16-28.5-41.5c-0.2-25.5,3.1-41.7,27.9-41.9c26.7-0.2,28.3,19.2,28.5,41.5
			C593.6,596.3,592.3,615.7,565.6,615.9 M565.4,603.3c7.6-0.1,8.7-7.1,8.6-29.2c-0.1-22-1.3-29.1-9-29c-7.4,0-8.5,7.1-8.3,29.1
			C556.8,596.3,558,603.4,565.4,603.3"/>
	</g>
</g>
</svg>
