<?xml version="1.0" encoding="utf-8"?>
<!-- Generator: Adobe Illustrator 23.0.3, SVG Export Plug-In . SVG Version: 6.00 Build 0)  -->
<svg version="1.1" id="Layer_1" xmlns="http://www.w3.org/2000/svg" xmlns:xlink="http://www.w3.org/1999/xlink" x="0px" y="0px"
	 viewBox="0 0 800 800" style="enable-background:new 0 0 800 800;" xml:space="preserve">
<style type="text/css">
	.st0{fill:#FFFFFF;}
	.st1{fill-rule:evenodd;clip-rule:evenodd;fill:#FFFFFF;}
</style>
<g>
	<path class="st0" d="M211,472h-38.6l-74.7-80.2V472h-43V328h38.5l74.5,79.8V328H211V472z"/>
	<path class="st0" d="M387.6,328l-56.4,78V472h-43.4v-65.1L230.3,328h45.1l33,45.3l33.1-45.3H387.6z"/>
	<path class="st0" d="M515.4,472H406.9V328h106.7v28.9h-63.3v26.4h60.4v29h-60.4V443h65.1V472z"/>
	<path class="st0" d="M682.5,363h-52.7V472h-43.3V363h-52.8v-35h148.8V363z"/>
	<path class="st0" d="M705.3,329h40v42.2l-4,55.3h-31.9l-4-55.3V329z M705.9,436.2h38.7V472h-38.7V436.2z"/>
</g>
</svg>
