<?xml version="1.0" encoding="utf-8"?>
<!-- Generator: Adobe Illustrator 23.0.3, SVG Export Plug-In . SVG Version: 6.00 Build 0)  -->
<svg version="1.1" id="Layer_1" xmlns="http://www.w3.org/2000/svg" xmlns:xlink="http://www.w3.org/1999/xlink" x="0px" y="0px"
	 viewBox="0 0 800 800" style="enable-background:new 0 0 800 800;" xml:space="preserve">
<style type="text/css">
	.st0{fill:#FFFFFF;}
	.st1{fill-rule:evenodd;clip-rule:evenodd;fill:#FFFFFF;}
</style>
<g>
	<g>
		<g>
			<path class="st0" d="M363.8,361.8c0,0,14.2-1.7,25.5,5.8c11.3,7.5,14.4,12.7,16.1,15.9c1.7,3.2,2,4.7,3.4,4.7
				c1.4,0,2.8-1.4,3-6.4c0.2-4.9,0.7-10.2,6.5-9.9c5.8,0.4,11.2,1.9,15-3.1c3.8-5,0.8-11.3,0.8-11.3s2.3-2.4,2.4-3.1
				c0.1-0.8-0.1-2.2-0.1-2.2s1.5-0.9,1.7-1.7c0.2-0.9-1.3-1.3-0.3-5.5c0,0,3.1-0.2,4.3-0.2c1.2,0,2.3-0.9,2.3-2.2
				c0-1.3,0-9.4-0.9-13.4c-0.9-4-1.8-4.9-3-5.5c-1.1-0.5-2.4-2.1-1-4.6c1.4-2.6,2-2.5,2-2.5s7.1-0.7,27,6.8
				c19.8,7.5,22.7,3.9,15.5-4.3c-7.2-8.2-16.4-17.9-29.4-40.8c-13-22.9-25.1-51.6-50.4-51.6c-25.3,0-33.9,19.6-39.5,34.8
				c-5.6,15.2-13.3,37.6-21.2,49.1c-7.9,11.4-10.6,15.5-16,20c-5.4,4.6-6,11.3,3.2,8.7c9.3-2.6,25.6-14.1,38.5-14.2
				c0,0,3.2,8.8,5,11.9c0,0-3-1.8-3.7-1.6c-0.1,0.1-0.9,1.3-1.8,8.7C367.8,351.8,367.3,353.8,363.8,361.8z"/>
			<g>
				<path class="st0" d="M390.2,422.8c0,0-7.6-5.1-10.5-8.8c-2.9-3.7-2.4-12.3-5-12.9c-2.6-0.6-4.2,1.7-4.2,1.7
					c-3.3-1.5-1.1-11.8-5.4-12.2c-4.3-0.5-5,3.7-5,3.7c-4.2-1.9-1.6-7.7-6.2-7.7c-4.6,0-3.9,5.5-3.9,5.5c-2.8-1.2-1.9-7-6.5-6.2
					c-4.5,0.8-1.8,7.1-1.8,7.1c-2,0.3-1.8-2.8-4.5-4.1c-2.7-1.3-5.6,2.2-4.2,5.4c1.3,3.2,4.4,2.6,4.4,2.6s-1.5,0.9-1.9,2.6
					c-0.3,1.7,1.5,4.2,4.4,4.2c2.9-0.1,4.1,0.6,4.1,0.6s-1.9,1.5-1.8,3.4c0.1,1.9,1.8,3.3,5.1,2.8c3.3-0.5,5.2,0.2,5.2,0.2
					s-1.5,2,0,3.7c1.5,1.7,4.2,0.7,8-0.1c3.8-0.9,4.5,0.3,4.5,0.3c-1.8-0.3-4.7,2.7-0.3,4.8c4.4,2.1,6.7-1.1,9.6-0.4
					c2.7,0.7,6,2.4,6,2.4c-9.5,0.8-17.9,5.7-17.9,5.7c-0.8-0.7-1.6-1.3-1.3-3.5c0.3-2.2,0.5-4-0.3-4.7c-0.7-0.6-2.1,1.1-2.1,1.1
					s-14.3-9.6-18.3-2.6c-4,7,9.9,14.1,9.9,14.1s-0.7,0.9-0.8,1.7c-0.1,0.7,1.4,1.2,3.4,0.9c2.1-0.3,2.9,0.2,2.9,0.2
					c-3.7,4.6-3.7,8.8-1.8,9.2c1.9,0.4,3.2-3.3,4.9-5.4c13.9-14.5,28.7-11.9,28.7-11.9c5.4,2.2,7.6,5.4,7.6,5.4
					c-4.2,1.4-7.3-0.2-10.4-1.9c-3.1-1.7-8.9-2.5-9.3,1.3c-0.4,3.8,4.9,4.7,4.9,4.7s-3.2,0.8-6.7,0.1c-3.5-0.7-9.6-2.7-10.5,1.9
					c-0.8,4.6,6.2,5.4,6.2,5.4s-0.3,0.5-3.2,0.8c-2.9,0.3-9-2.3-10.2,1.8c-1.2,4.1,4,5.3,4,5.3c-3,2-4.6,5.6-3.4,7.7
					c1.1,2.1,3.9,0.9,4.9,0c1-0.9,3.2-2,3.2-2s-1.9,4.4,0.5,5.6c2.4,1.2,5.6,0.1,7.3-3.5c1.6-3.6,4.4-5.5,4.4-5.5s-1.9,4.7,0.6,5.7
					c2.5,1,6-0.7,6.6-3.5c0.7-2.8,2.3-3.6,2.3-3.6s0,4,4.5,3.5c4.5-0.5,6-5.5,6.4-11.8c0.4-6.3,3.3-7.4,3.3-7.4
					c0.7,2.5-0.1,3.9-0.9,6.6c-0.9,2.8-1,7,4.6,5.7c5.6-1.3,4.6-8.8,4.6-8.8s1.3,1.2,1.9,4.5c0.6,3.3-0.8,12.2,4.4,12
					c5.2-0.2,4.7-5.3,4.7-5.3s1.1,1.4,1.5,3.9c0.4,2.5,1,7.7,5.5,7.4c4.4-0.3,3.8-6.3,3.8-6.3s0.8,0.3,1.2,1.9
					c0.3,1.7,2.7,6.6,8.1,5.2c3.7-1,2.4-4.9,2.4-4.9s3.3,3.2,6.5,1.3c3.2-1.8,1.5-6.3-0.5-6.9c-2-0.6-3.3-1.9-3.3-1.9s3.5,0.7,4-2.5
					c0.6-3.3-2.3-5-5.8-5.1c-3.5-0.1-6.9-0.9-6.9-0.9s5.4-1.5,4.8-4.8c-0.6-3.4-5.6-3.3-9.4-2c-3.8,1.3-6.4,0.5-6.4,0.5
					s3.8-2,2.9-4.6c-0.9-2.6-4.6-1.1-8.5,0.7c-3.9,1.8-8.3,1.4-8.3,1.4c3.4-2.2,12.9-5.6,21.2-5.4c8.3,0.3,14.8,12.6,15.9,15.2
					c1.1,2.6,1.6,3,4.2,2.4c2.7-0.6-2.9-9.7-2.9-9.7c5.6,2.5,10,0.9,10.5,0.3c0.5-0.6-0.3-2.1-0.3-2.1s10.9-10.5,6.4-14.7
					c-4.5-4.2-15.2,4.9-15.2,4.9s-1.5-1.1-2-0.8c-1.9,1.6-2.3,8.3-2.3,8.3c-3.1-5.3-9.1-7.1-9.1-7.1s-4.1-0.4-1.3-2.1
					c2.7-1.7,5.8-2.8,8.8-2.8c3,0,8.4,0.9,9.4-1.7c0.9-2.7-0.8-3.8-0.8-3.8c1.1-0.1,2.4,0.9,4.9,1.6c2.6,0.7,5.7-0.8,6-3.6
					c0.3-2.8-2.9-3.8-2.9-3.8s2.1,0.1,4.5,0.2c2.4,0.2,6.2-1.5,5.8-4.8c-0.4-3.4-4.7-3-4.7-3c0.9-1.1,4.9-1.3,6.9-5.4
					c2-4.1-0.9-5.5-2.5-5c-1.6,0.6-2.9,0.8-2.9,0.8c0.7-0.5,3-4.3,0.6-6.1c-4.3-3.3-9.8,5.2-9.8,5.2s1.6-4.3-1.8-5.2
					c-3.5-0.9-5.9,2.6-6.9,6.6c-1,4-2.5,6-2.5,6s0-2.3-2.2-3c-2-0.6-4.4,1.6-5.3,7c-0.8,5.3-1.8,6.7-1.8,6.7s0.2-3.7-2.8-3.4
					c-5,0.5-1.5,6.9-1.9,10.2c-0.3,2.6-0.7,3.3-0.7,3.3c-2.3,1.1-3.7,2.4-3.7,2.4s-2.8-1.1-4.1-1.7c-4.6-3.2-3.8-10.4-5.4-14.1
					c-0.9-2.4-3.2-2.2-3.2-2.2c-3.6,0.4-3.6,4.8-3.6,4.8s-1.7-1.2-1.9-4.9c-0.2-3.7-1.2-9.3-5.6-8.4c-4.4,0.9-3.1,8-3.1,8
					c-3.6-1.5-2.8-11.2-8.9-9.6c-4.8,1.3-1.4,8.9-1.4,8.9s-1.5-0.6-2.6-2.1c-1-1.5-3.9-2.2-5.8-0.2c-1.9,1.9-0.4,5.6,1.2,6
					c1.6,0.3,2.9,1.6,2.9,1.6s-5,0.2-4.8,4c0.2,3.8,4.1,3.9,6.1,3.4c2-0.5,4-0.6,4-0.6s-4.3,2.8-3.2,6c1.2,3.3,6.9,2.1,9.2,0.8
					c2.4-1.3,4.5-1.5,4.5-1.5c-1,4.2,2.7,5.7,6.6,4.6c3.9-1.2,9.4,1.1,9.4,1.1s-0.5,0.8-4.8,1.7c-4.3,0.9-9.3,3-9.3,3
					c-2.3-5.6-3.4-8-4.4-8.3c-1.3-0.4-4.9,0.8-5.7,2c-0.4,0.7,0.9,2.4,0.9,2.4s-2.4-0.1-5.3-2.1"/>
			</g>
		</g>
		<g>
			<path class="st0" d="M128.8,503.4v4.2c-2.2,0.5-4,1.6-5.2,3.1c-1.3,1.5-2.3,3.9-3.2,7.1l-12.6,47l1.7,7l-8.7-0.3
				c-1.5,0-3.9,0.1-7.3,0.3l-14.2-46.4l-10.5,39.8l1.6,6.5c-4.7-0.2-7.5-0.3-8.2-0.3c-1.4,0-3.9,0.1-7.5,0.3l-16.8-55
				c-0.9-3.1-1.9-5.3-3-6.6c-1.1-1.3-2.5-2.1-4.3-2.5v-4.2c4,0.3,8.6,0.4,13.9,0.4c5.1,0,10.1-0.1,14.9-0.4v4.2
				c-3.3,0.3-4.9,1.8-4.9,4.5c0,1.6,0.4,4,1.3,7.1l10.5,37.2l10.2-39c-1.4-5.1-2-9.5-2-13.1v-0.8c4.2,0.2,7.2,0.3,8.9,0.3
				c2,0,4.7-0.1,8-0.3c-0.1,3.5,0.7,7.9,2.2,13.3l11.6,39.5l10.1-39.5c0.5-1.8,0.7-3.3,0.7-4.3c0-2.7-1.9-4.3-5.7-4.9v-4.2
				c4.1,0.2,7.2,0.3,9.5,0.3C122,503.7,125,503.6,128.8,503.4z"/>
			<path class="st0" d="M196.4,503.4v14.6c-0.7-0.1-1.8-0.1-3-0.1c-1.2,0-2.1,0-2.8,0.1c-1.8-6.5-6.7-9.8-14.8-9.8h-15.6v25.4h12.3
				c3.3,0,5.7-0.6,7.1-1.9c1.4-1.3,2.2-3.5,2.4-6.6c0.7,0.1,1.6,0.1,2.4,0.1c0.8,0,1.6,0,2.3-0.1v21.6c-0.7-0.1-1.5-0.1-2.3-0.1
				c-0.7,0-1.6,0-2.4,0.1c-0.3-3-1.1-5.1-2.5-6.3c-1.4-1.2-3.8-1.8-7.2-1.8h-12.1V567h17.3c3.6,0,6.3-0.2,8.1-0.6
				c2.7-0.6,5-1.9,7-3.8c2.2-2.1,4-5,5.4-8.6c1.9,0.7,3.7,1.1,5.4,1.1l-3.4,16.5c-6.2-0.3-21.4-0.4-45.6-0.4
				c-7.9,0-14.5,0.1-19.7,0.4v-4.2c3.8-0.1,6.1-0.6,6.9-1.5c0.8-0.9,1.2-3.6,1.2-8.1v-40.9c0-4.5-0.4-7.2-1.2-8.1
				c-0.8-0.9-3.1-1.4-6.9-1.5v-4.2c5.4,0.3,12.6,0.4,21.4,0.4C172.1,503.8,185.5,503.6,196.4,503.4z"/>
			<path class="st0" d="M272.7,554.8l-3.2,16.9c-9.6-0.3-22.8-0.4-39.5-0.4c-7.3,0-13.6,0.1-19,0.4v-4.2c3.8-0.1,6.1-0.6,6.9-1.5
				c0.8-0.9,1.2-3.6,1.2-8.1v-40.9c0-4.5-0.4-7.2-1.2-8.1c-0.8-0.9-3.1-1.4-6.9-1.5v-4.2c4.1,0.3,9.7,0.4,16.8,0.4
				c7.1,0,12.7-0.1,16.8-0.4v4.2c-3.8,0.1-6.1,0.6-6.9,1.5c-0.8,0.9-1.2,3.6-1.2,8.1V567h4.4c8.1,0,13.9-0.9,17.6-2.7
				c3.7-1.8,6.6-5.2,8.8-10.1C269.6,554.6,271.4,554.8,272.7,554.8z"/>
			<path class="st0" d="M339.5,554.8l-3.2,16.9c-9.6-0.3-22.8-0.4-39.5-0.4c-7.3,0-13.6,0.1-19,0.4v-4.2c3.8-0.1,6.1-0.6,6.9-1.5
				c0.8-0.9,1.2-3.6,1.2-8.1v-40.9c0-4.5-0.4-7.2-1.2-8.1c-0.8-0.9-3.1-1.4-6.9-1.5v-4.2c4.1,0.3,9.7,0.4,16.8,0.4
				s12.7-0.1,16.8-0.4v4.2c-3.8,0.1-6.1,0.6-6.9,1.5c-0.8,0.9-1.2,3.6-1.2,8.1V567h4.4c8.1,0,13.9-0.9,17.6-2.7
				c3.7-1.8,6.6-5.2,8.8-10.1C336.4,554.6,338.2,554.8,339.5,554.8z"/>
			<path class="st0" d="M370.1,517.1V558c0,4.5,0.4,7.2,1.2,8.1c0.8,0.9,3.1,1.4,6.9,1.5v4.2c-4.1-0.3-9.7-0.4-16.8-0.4
				s-12.7,0.1-16.8,0.4v-4.2c3.8-0.1,6.1-0.6,6.9-1.5c0.8-0.9,1.2-3.6,1.2-8.1v-40.9c0-4.5-0.4-7.2-1.2-8.1
				c-0.8-0.9-3.1-1.4-6.9-1.5v-4.2c4.1,0.3,9.7,0.4,16.8,0.4s12.7-0.1,16.8-0.4v4.2c-3.8,0.1-6.1,0.6-6.9,1.5
				C370.5,509.9,370.1,512.6,370.1,517.1z"/>
			<path class="st0" d="M408.9,503.4l39.8,52v-38.2c0-4.6-0.4-7.3-1.2-8.2c-0.8-0.9-3.1-1.4-7.1-1.4h-1.1v-4.2
				c4.7,0.2,8.6,0.3,11.8,0.3c3,0,6.9-0.1,11.6-0.3v4.2h-1.1c-3.9,0-6.3,0.5-7.1,1.4c-0.8,0.9-1.2,3.7-1.2,8.2v44.3l7.7,10.3
				l-10.1-0.3c-0.9,0-4.6,0.1-11.1,0.3l-40.5-53V558c0,4.6,0.4,7.3,1.2,8.2s3.1,1.4,7.1,1.4h1.1v4.2c-4.7-0.2-8.6-0.3-11.7-0.3
				c-3,0-6.9,0.1-11.7,0.3v-4.2h1.1c3.9,0,6.3-0.5,7.1-1.4s1.2-3.6,1.2-8.2v-45.4l-6.9-9.2c5,0.2,8.5,0.3,10.4,0.3
				C399.5,503.7,403,503.6,408.9,503.4z"/>
			<path class="st0" d="M534,510.5v11.2c-2-0.1-3.4-0.1-4.4-0.1c-1.2,0-2.5,0-4,0.1c-2.5-10.5-8.1-15.8-16.9-15.8
				c-6.3,0-11.3,2.5-14.8,7.5c-3.9,5.4-5.8,13.6-5.8,24.4c0,11.3,2.3,19.6,6.9,25c3.3,3.9,7.3,5.8,12,5.8c4,0,7.8-1,11.4-3v-12.4
				c0-2.7-0.4-4.5-1.2-5.2c-0.8-0.8-2.7-1.3-5.6-1.5v-4.2c4.1,0.2,9.4,0.3,16,0.3c5.6,0,10.1-0.1,13.5-0.3v4.2
				c-2.2,0.5-3.5,1.2-4.1,2c-0.6,0.8-0.9,2.3-0.9,4.5v11.7c-8.9,5.5-18.7,8.3-29.3,8.3c-11.6,0-20.8-3.2-27.5-9.5
				c-6.8-6.3-10.2-15-10.2-25.8c0-13,4.8-22.6,14.5-28.8c7.1-4.5,15.1-6.8,24.1-6.8C516.9,502,525.6,504.9,534,510.5z"/>
			<path class="st0" d="M609.9,503.4l0.8,16.5c-0.8-0.1-1.8-0.2-2.8-0.2c-1,0-1.8,0.1-2.4,0.2c-2.2-7.8-6.6-11.7-13.2-11.7h-4.7V558
				c0,4.5,0.4,7.2,1.2,8.1c0.8,0.9,3.1,1.4,6.9,1.5v4.2c-4.1-0.3-9.7-0.4-16.8-0.4s-12.7,0.1-16.8,0.4v-4.2c3.8-0.1,6.1-0.6,6.9-1.5
				c0.8-0.9,1.2-3.6,1.2-8.1v-49.8h-4.6c-6.4,0-10.9,3.9-13.4,11.7c-0.6-0.1-1.4-0.2-2.4-0.2c-1.1,0-2,0.1-2.7,0.2l0.6-16.5
				c6.8,0.3,18.1,0.4,33.8,0.4C594.1,503.8,603.6,503.6,609.9,503.4z"/>
			<path class="st0" d="M650.8,502c10.8,0,19.3,3.2,25.6,9.5c6.3,6.4,9.4,15,9.4,25.8c0,13.8-4.9,23.8-14.6,30.1
				c-5.8,3.7-12.6,5.6-20.3,5.6c-10.8,0-19.5-3.2-25.9-9.5c-6.4-6.3-9.7-14.9-9.7-25.5c0-11.3,3.1-20.2,9.4-26.5
				C630.8,505.2,639.6,502,650.8,502z M650.2,505.9c-6.1,0-10.4,2.7-12.8,8c-2.1,4.6-3.2,11.7-3.2,21.2c0,11.5,1.3,19.9,4,25.4
				c2.7,5.4,6.9,8.2,12.6,8.2c6.4,0,10.7-3,13.1-8.9c1.9-4.7,2.8-11.6,2.8-20.7C666.8,517,661.2,505.9,650.2,505.9z"/>
			<path class="st0" d="M715.7,503.4l39.8,52v-38.2c0-4.6-0.4-7.3-1.2-8.2c-0.8-0.9-3.1-1.4-7.1-1.4h-1.1v-4.2
				c4.7,0.2,8.6,0.3,11.8,0.3c3,0,6.9-0.1,11.6-0.3v4.2h-1.1c-3.9,0-6.3,0.5-7.1,1.4c-0.8,0.9-1.2,3.7-1.2,8.2v44.3l7.7,10.3
				l-10.1-0.3c-0.9,0-4.6,0.1-11.1,0.3l-40.5-53V558c0,4.6,0.4,7.3,1.2,8.2c0.8,0.9,3.1,1.4,7.1,1.4h1.1v4.2
				c-4.7-0.2-8.6-0.3-11.7-0.3c-3,0-6.9,0.1-11.7,0.3v-4.2h1.1c3.9,0,6.3-0.5,7.1-1.4s1.2-3.6,1.2-8.2v-45.4l-6.9-9.2
				c5,0.2,8.5,0.3,10.4,0.3C706.2,503.7,709.8,503.6,715.7,503.4z"/>
		</g>
	</g>
</g>
</svg>
