<?xml version="1.0" encoding="utf-8"?>
<!-- Generator: Adobe Illustrator 23.0.3, SVG Export Plug-In . SVG Version: 6.00 Build 0)  -->
<svg version="1.1" id="Layer_1" xmlns="http://www.w3.org/2000/svg" xmlns:xlink="http://www.w3.org/1999/xlink" x="0px" y="0px"
	 viewBox="0 0 800 800" style="enable-background:new 0 0 800 800;" xml:space="preserve">
<style type="text/css">
	.st0{fill:#FFFFFF;}
	.st1{fill-rule:evenodd;clip-rule:evenodd;fill:#FFFFFF;}
</style>
<path class="st0" d="M606.4,297.3C558,234.2,446.9,163.4,396.1,163.1l-0.2,0h-0.1l-0.2,0c-50.8,0.3-161.9,71.1-210.3,134.2
	c54.9-40.8,149-85.9,210.6-85.9C457.4,211.4,552.4,257.4,606.4,297.3"/>
<g>
	<defs>
		<path id="SVGID_1_" d="M237.5,566.3c59.9-0.7,122.1-20.5,174.4-34.4c75.5-20,136.1-39.3,197.5-36.1c40.9,2.2,89.1,9.3,135.5,38
			c-25.1-11.4-55.9-18.3-84.6-20.5c-66.1-5-131.2,15.8-201.8,43.7c-58.9,23.3-127,46.7-186.9,47c-69.8,0.4-133.6-21.9-172-89.9
			C136.7,552.7,188.1,566.9,237.5,566.3"/>
	</defs>
	<use xlink:href="#SVGID_1_"  style="overflow:visible;fill:#FFFFFF;"/>
	<clipPath id="SVGID_2_">
		<use xlink:href="#SVGID_1_"  style="overflow:visible;"/>
	</clipPath>
</g>
<polyline class="st0" points="466.5,314.5 466.1,291.5 461.3,291.5 461.7,314.3 466.5,314.5 "/>
<path class="st0" d="M625.7,398.6c-3.4-35.2-28.2-69.3-64.9-73.7c-36.3-4.3-59.7,30.6-57.8,63.8l0,0.3c1.5,35.7,28.1,68.3,64.4,72.4
	C603.6,465.6,629.1,433,625.7,398.6 M534.7,390.1l0-0.3c-1.2-17.2,2.1-50.9,27.2-47.1c23.7,3.6,30.5,31.7,32,51.7
	c1.3,17.1-1,52-26.4,48.4C543,439.4,535.4,411,534.7,390.1z"/>
<path class="st0" d="M751.6,408.6c-1.6-12.7-3.1-22.4-8.2-31.6c-8.4-15.2-23.1-26.6-39.9-30.4c-15.1-3.3-31.5,2.6-39.6,16.2
	l-2.4-22.3l-26.6-4.3c4.2,41.8,13,133.7,13,133.7l29.9,4.8c0,0-4.5-45.8-6.3-63.4c-1.9-20.1,0-45.5,23.2-42
	c19.7,3,27.3,25,28.6,41.2c2.9,25.4,8.5,74.8,8.5,74.8l30.7,7.1C762.5,492.4,755,435,751.6,408.6"/>
<path class="st0" d="M289.4,453l3.3-132.2l-28.6,2.3c0,0-1.7,39.4-2.4,57.8c-1,26.1-5.9,51.8-30.5,55.5c-19.5,2.9-23-12.3-21.9-29.7
	c1.3-25.8,4.1-78.3,4.1-78.3l-28.4,3.9c0,0-4,57.3-5.6,83.7c-0.8,12.7-0.6,23,3.2,30.1c7.1,13.5,22.5,17.1,36.3,15.3
	c17.9-2.3,35.6-11.1,44.3-27.6l-0.6,21.4L289.4,453"/>
<path class="st0" d="M127.1,468.5c19.8-9.5,36.4-28.2,38-50.5c0.9-12.6-4-23.8-12.2-29.6c-13.2-9.4-26.4-8-26.4-8
	c18.6-9.1,33.6-26.1,37.2-46.5c9.7-54.8-87.5-22.2-111.4-13.8C45,378.6,38.3,437.4,29.8,496.3c16.2-4.1,32.4-8,48.5-12.1
	C95.5,480,111.8,475.9,127.1,468.5 M80,330.4c14.3-5.1,60.9-17.9,54.1,12.6c-5,22.3-28.5,33.4-49.2,37.4c-4,1-10.5,2.1-10.5,2.1
	S78.3,345.3,80,330.4z M72.1,402.4c0,0,6.1-1.8,11.3-3.1c10.8-2.7,24.7-6.1,34-3.8c10.6,2.7,15.9,12.4,14.9,25.6
	c-1,12.7-7.6,24.7-19.9,33.1c-7.9,5.4-18.6,7.8-31.2,10.8c-9.3,2.1-16.2,3.5-16.2,3.5L72.1,402.4z"/>
<polyline class="st0" points="377.1,377.5 417.4,316.9 392.8,317 365,358.6 339,318.1 307.6,319.8 348.4,383.5 302.6,452.1 
	328.5,450.6 360.5,402.4 390.3,449 423,448.9 377.1,377.5 "/>
<path class="st0" d="M498.7,450.2l-0.8-19.6c-14.7,5.9-37.7,2.3-36.5-18.2c-0.7-24.5-1.3-49.1-1.9-73.5l35.7,1.6l-0.7-21.5
	l-36.1-1.6l-0.6-29.5l-28.1,0l0.4,26.2c0,0,1.1,67.1,1.8,100.8C431.5,449.7,470.9,457.3,498.7,450.2"/>
<path class="st0" d="M617.3,361.3c6.5,11.6,10.5,24.5,11.7,37c1.8,18.2-4,36.1-15.8,49.1c-10.4,11.4-24.5,17.8-39.7,17.8h0
	c-2.1,0-4.3-0.1-6.5-0.4c-2.4-0.3-4.7-0.7-7.1-1.2c4.7,1.7,9.7,2.9,14.8,3.4c36.2,4.1,61.6-28.5,58.3-62.9
	C631.6,388.9,626.1,373.8,617.3,361.3"/>
<path class="st0" d="M561.4,346.1c-1.1-0.2-2.2-0.3-3.3-0.3c-4.6,0-8.3,1.6-11.3,4.9c-7.9,8.5-9.7,26.3-8.8,39l0,0.4
	c0.4,13.8,3.8,28.6,11.4,38.4c-5-10.1-7-22.3-7.3-32.7l0-0.3c-1.2-17.1,2.1-50.3,26.6-47.2C566.5,347.2,564.1,346.5,561.4,346.1"/>
<path class="st0" d="M760.6,414c-1.7-12.7-3.2-22.4-8.2-31.6c-2.6-4.8-6-9.3-9.9-13.2c1.4,2,2.7,4,3.8,6.1
	c5.2,9.5,6.9,19.6,8.6,32.8l11.6,88.7l-26.2-6c0.2,2.1,0.4,3.3,0.4,3.3l31.4,7.4C772.1,501.5,764.1,440.5,760.6,414"/>
<path class="st0" d="M680.4,376.5c-5.2,5.7-7.2,17.7-5.6,34.5c1.8,17.6,6.3,63.4,6.3,63.4l0.4,4.3l-25.7-4.1c0.2,1.9,0.3,3,0.3,3
	l30.8,5c0,0-5.2-48.2-6.3-65.8c-1.5-22.6-0.9-43.9,20-42.2c-1.9-0.9-4-1.6-6.4-1.9C688.1,371.8,683.6,373,680.4,376.5"/>
<path class="st0" d="M217.3,429.8c0.6,0.7,1.3,1.2,2.1,1.7c-1.8-5.3-2.2-11.9-1.7-19c1.3-25.8,4.2-78.3,4.2-78.3l-5.3,0.7
	c-0.8,14.8-2.8,51.6-3.8,71.9C212.1,418.2,213.6,425.9,217.3,429.8"/>
<polyline class="st0" points="292.7,456.1 271.1,457.8 271,461 297.7,458.9 301.1,326.6 296,327 292.7,456.1 "/>
<path class="st0" d="M219.5,464.7c-2.3,0.3-4.7,0.5-7,0.5c-2.7,0-5.3-0.2-7.8-0.6c6.9,3,15,3.7,22.6,2.7c11.6-1.5,23-5.7,32.1-13
	l0.3-9.4C250.4,455.5,236.3,462.5,219.5,464.7"/>
<path class="st0" d="M167.1,336.6c-3,17.2-13.9,32.9-29.7,43.5c1.8,0.4,3.9,1,6,1.7c13.9-9.8,25.5-24.2,28.3-40.3
	c2-11.2-0.5-18.8-6-23.6C167.9,323,168.4,329.3,167.1,336.6"/>
<path class="st0" d="M126.8,328.9c-3.3-1.8-8-2.3-11.7-2.3c-12.1,0-26.3,4.3-32,6.2c-1.4,12.4-3.9,35.8-4.9,45.6
	c1.8-0.4,3.9-0.8,5.6-1.2c1.3-12.2,3.4-31.6,4.5-41.4C96.1,333.1,113.6,327.9,126.8,328.9"/>
<path class="st0" d="M168.5,418.2c-1.6,21.8-16.9,42.3-39.9,53.3c-16,7.7-33,11.9-49.4,16c-8.6,2.2-17.2,4.3-25.7,6.4
	c-4.9,1.2-9.8,2.4-14.7,3.7c-0.2,1.4-0.4,2.8-0.6,4.2c16.2-4.1,32.3-8,48.5-12.1c17.2-4.2,32.3-8.4,47.7-15.7
	c19.8-9.5,37.1-28.2,38.8-50.5c0.8-11.1-2.6-21-9-27.2C167.5,402.5,169.1,410.2,168.5,418.2"/>
<path class="st0" d="M120.5,400.3c-1.2-0.6-2.5-1.2-3.9-1.5c-1.8-0.5-3.9-0.7-6.4-0.7c-8.1,0-18,2.5-26,4.5
	c-3.2,0.8-6.8,1.8-9.1,2.4l-6.2,59.4c1.5-0.3,3.5-0.8,5.6-1.2l5.8-55.3c0,0,6.1-1.8,11.3-3.1C100.7,402.5,111.7,399.8,120.5,400.3"
	/>
<polyline class="st0" points="330.4,453.8 311.7,454.9 309.2,458.6 335.2,457.1 363.8,413.7 360.5,408.6 330.4,453.8 "/>
<polyline class="st0" points="424,323.5 417,323.5 381.1,377.5 429.2,452.3 398.3,452.3 400.3,455.5 434.3,455.5 386.3,380.2 
	424,323.5 "/>
<path class="st0" d="M462.9,342.5c0.5,21.8,1.1,44.7,1.8,69.9v0.1l0,0.1c-0.3,4.8,0.9,8.7,3.6,11.5c0.7,0.7,1.4,1.3,2.2,1.9
	c-0.7-2.2-1-4.7-0.8-7.5c-0.7-24.5-1.3-48.7-1.9-73.1l35.7,1.6l-0.7-21.9l-4.8-0.2l0.6,19.1L462.9,342.5"/>
<path class="st0" d="M501.5,436.4l0.7,16.4l-2.6,0.7c-6.4,1.6-13.5,2.5-20.3,2.5c-5.8,0-11.3-0.6-16.4-1.8
	c13.3,5.5,30.2,5.6,44.2,2.1l-1-21.4C504.6,435.5,503.1,436,501.5,436.4"/>
<polyline class="st1" points="347,323.7 365.1,352.1 367,349.5 350.4,323.5 347,323.7 "/>
<path class="st0" d="M764.2,360.3c0,4.6-3.7,8.3-8.4,8.3c-4.7,0-8.5-3.7-8.5-8.3c0-4.6,3.8-8.2,8.5-8.2
	C760.4,352.1,764.2,355.7,764.2,360.3 M749.3,360.3c0,3.7,2.8,6.6,6.4,6.6c3.6,0.1,6.3-2.9,6.3-6.5c0-3.7-2.7-6.6-6.4-6.6
	C752.1,353.8,749.3,356.7,749.3,360.3z M754.4,364.6h-1.9v-8.2c0.8-0.1,1.8-0.3,3.2-0.3c1.6,0,2.3,0.3,2.8,0.7
	c0.5,0.3,0.8,1,0.8,1.8c0,1-0.7,1.6-1.7,2v0.1c0.8,0.3,1.2,0.9,1.5,2c0.2,1.3,0.4,1.7,0.6,2h-2c-0.3-0.3-0.4-1-0.7-2
	c-0.1-0.9-0.6-1.3-1.7-1.3h-0.9V364.6z M754.5,360h0.9c1.1,0,1.9-0.4,1.9-1.2c0-0.7-0.6-1.3-1.8-1.3c-0.5,0-0.8,0.1-1,0.1V360z"/>
</svg>
