<svg xmlns="http://www.w3.org/2000/svg" xmlns:xlink="http://www.w3.org/1999/xlink" id="Layer_1" x="0px" y="0px" viewBox="0 0 96.3 29.31" style="enable-background:new 0 0 96.3 29.31;" xml:space="preserve">
<style type="text/css">
	.st0{fill:#FFFFFF;}
</style>
<g>
	<path class="st0" d="M27,2.15c-0.82,0.04-1.72,0.48-2.32,1.52c0.49,0.1,1.52,1.06,1.5,3.18c-0.01,3.03-2.39,7.71-4.79,11.43   c-0.1-4.1-0.69-8.88,0.38-12.17l-2.03-0.82l0-0.03l-1.37-0.52c-0.8,3.16-3.32,9.62-5.64,14.35c0.47-3.05,0.74-6.47,0.76-9.19   c0-3.86-1.92-5.73-5.04-5.58c-4.37,0.2-8.09,3.04-8.12,8.43c-0.02,3.55,2.48,4.66,4.04,4.59l2.09-5.09l-0.04-0.12   c-0.86,0.01-1.54-0.82-1.52-2.44c0-2.6,1.59-4.02,3.39-4.11c1.22-0.06,2.1,0.45,2.15,2.69c-0.02,3.43-1.03,10.7-3.26,15.31   l4.08,2.07c1.54-1.85,4.23-8.5,6.24-13.95c-0.05,4.78,0.87,8.17-0.99,12.26l3.61,1.27c0.2-0.25,0.37-0.54,0.51-0.85   c2.39-3.97,8.29-15.18,8.32-19.83C28.96,2.89,28.19,2.1,27,2.15z"></path>
	<path class="st0" d="M30.38,9.96c0.2,0.22,0.49,0.31,0.86,0.3c0.45-0.02,0.86-0.19,1.23-0.5c0.37-0.31,0.67-0.69,0.88-1.13   c0.21-0.44,0.31-0.85,0.29-1.24c-0.02-0.33-0.12-0.58-0.31-0.77c-0.19-0.18-0.46-0.27-0.81-0.25c-0.51,0.02-0.95,0.18-1.33,0.48   c-0.37,0.29-0.66,0.65-0.87,1.07c-0.21,0.42-0.3,0.82-0.28,1.21C30.07,9.46,30.18,9.74,30.38,9.96z"></path>
	<path class="st0" d="M54.31,8.83c0.2,0.22,0.49,0.31,0.86,0.3c0.45-0.02,0.86-0.19,1.23-0.5c0.37-0.31,0.67-0.69,0.88-1.13   c0.21-0.44,0.31-0.85,0.29-1.24c-0.02-0.33-0.12-0.58-0.31-0.77c-0.19-0.18-0.46-0.27-0.81-0.25c-0.51,0.02-0.95,0.18-1.32,0.48   c-0.37,0.29-0.66,0.65-0.87,1.07c-0.21,0.42-0.3,0.82-0.28,1.21C53.99,8.34,54.1,8.62,54.31,8.83z"></path>
	<path class="st0" d="M89.33,3.21l-0.22-0.17c-0.27,0.38-0.65,0.65-1.16,0.82c-0.5,0.17-1.13,0.27-1.88,0.3   c-0.69,0.03-1.62,0.03-2.79-0.02C82.3,4.1,81.47,4.09,80.8,4.1c0.18-0.48,0.26-0.98,0.24-1.51c-0.04-0.77-0.4-1.35-1.08-1.74   c-0.68-0.39-1.54-0.56-2.58-0.51l-0.03,0C74.7,0.49,72.58,1.6,71,3.67c-1.59,2.08-2.93,4.97-4.02,8.67l-0.87,3.12   c-0.13,0.27-0.28,0.53-0.44,0.78c-0.3,0.47-0.76,0.89-1.38,1.24c0.1-0.47,0.14-0.9,0.12-1.29c-0.03-0.55-0.13-1.07-0.3-1.55   c-0.18-0.48-0.42-0.99-0.73-1.53c-0.04-0.08-0.11-0.2-0.19-0.37c-0.08-0.17-0.17-0.38-0.27-0.63c-0.1-0.25-0.16-0.48-0.17-0.68   c-0.02-0.37,0.05-0.66,0.19-0.88c0.14-0.22,0.32-0.34,0.52-0.35c0.12-0.01,0.23,0.02,0.31,0.08L64.02,10c0-0.33-0.15-0.6-0.47-0.82   c-0.32-0.22-0.69-0.32-1.12-0.3c-0.35,0.02-0.68,0.12-1,0.31c-0.32,0.19-0.57,0.45-0.76,0.79c-1.36,1.92-2.36,3.56-3.02,4.92   c-0.54,0.31-0.97,0.79-1.31,1.44c-0.3,0.58-0.45,1.17-0.46,1.77c-0.26,0.22-0.52,0.33-0.79,0.35c-0.59,0.03-0.9-0.36-0.94-1.15   c-0.05-1.08,0.41-2.89,1.37-5.42c0.14-0.42,0.31-0.73,0.49-0.96c0.18-0.22,0.34-0.37,0.47-0.44c0.13-0.07,0.21-0.1,0.26-0.1   L56.6,9.86c-1.02,0.37-1.89,0.58-2.61,0.61c-0.45,0.02-0.82-0.03-1.11-0.16l-0.38,0.48c0.02,0.02,0.07,0.06,0.16,0.13   c0.08,0.07,0.13,0.14,0.13,0.22l0,0.03l-1.32,4.54c-0.06,0.16-0.16,0.38-0.29,0.68c-0.25,0.56-0.56,1.09-0.94,1.58   c-0.38,0.49-0.77,0.74-1.17,0.76c-0.59,0.03-0.9-0.36-0.94-1.15c-0.04-0.77,0.2-1.98,0.72-3.62l1.4-4.69   c0.62-2.11,0.94-3.21,0.98-3.29c0.14-0.41,0.31-0.73,0.49-0.96c0.18-0.22,0.34-0.37,0.48-0.44c0.14-0.07,0.23-0.1,0.27-0.1   l-0.15-0.51c-0.96,0.37-1.83,0.58-2.6,0.61c-0.45,0.02-0.81-0.03-1.08-0.16l-0.41,0.48l0.26,0.36l-1.89,6.64   c-0.12-0.42-0.35-0.78-0.68-1.07c-0.33-0.29-0.82-0.42-1.47-0.39c-1.1,0.05-2.08,0.54-2.95,1.46c-0.87,0.92-1.53,2.04-1.99,3.37   c-0.29,0.83-0.47,1.63-0.56,2.41c-0.17,0.3-0.36,0.59-0.57,0.86c-0.38,0.49-0.77,0.74-1.17,0.76c-0.59,0.03-0.91-0.38-0.94-1.21   l0.01-0.49c0.07-0.66,0.52-2.44,1.36-5.36c0.83-2.92,1.4-4.83,1.71-5.75c0.14-0.41,0.31-0.73,0.49-0.96   c0.18-0.22,0.34-0.37,0.48-0.44c0.14-0.07,0.23-0.1,0.27-0.1l-0.18-0.51c-0.96,0.37-1.82,0.58-2.57,0.61   c-0.45,0.02-0.82-0.03-1.11-0.16l-0.41,0.48l0.29,0.38l-3.05,10.85c-0.06,0.15-0.15,0.36-0.27,0.61c-0.26,0.56-0.58,1.09-0.95,1.58   c-0.38,0.49-0.77,0.74-1.17,0.76c-0.59,0.03-0.9-0.36-0.94-1.15c-0.05-1.08,0.41-2.89,1.37-5.42c0.14-0.41,0.31-0.73,0.49-0.96   c0.18-0.22,0.34-0.37,0.47-0.44c0.13-0.07,0.21-0.1,0.26-0.1l-0.15-0.51c-1.02,0.37-1.89,0.58-2.6,0.61   c-0.45,0.02-0.82-0.03-1.11-0.16l-0.38,0.48c0.02,0.02,0.07,0.06,0.16,0.13c0.08,0.07,0.13,0.14,0.13,0.22l0,0.03l-1.74,5.99   c-0.17,0.62-0.25,1.21-0.22,1.76c0.04,0.84,0.28,1.5,0.72,2c0.44,0.5,0.96,0.74,1.55,0.71l0.12-0.01l0.15-0.01   c0.73-0.03,1.37-0.3,1.91-0.81c0.54-0.5,0.98-1.09,1.31-1.75c0.09-0.18,0.19-0.37,0.28-0.58c0,0.05,0,0.1,0,0.16   c0.04,0.84,0.28,1.5,0.72,2c0.44,0.5,0.96,0.74,1.55,0.71c1.06-0.05,1.92-0.53,2.6-1.45c0.37-0.51,0.74-1.12,1.11-1.82   c0.06,0.9,0.29,1.62,0.68,2.17c0.41,0.58,1.02,0.86,1.81,0.82c0.71-0.03,1.34-0.36,1.88-0.99c0.54-0.63,1.04-1.46,1.51-2.51   c-0.01,0.14-0.01,0.34,0,0.58c0.04,0.79,0.26,1.43,0.66,1.91c0.4,0.48,0.88,0.73,1.43,0.74l0.09,0l0.06,0   c1.06-0.07,1.95-0.58,2.67-1.53c0.39-0.51,0.76-1.11,1.11-1.77c0,0.1,0,0.21,0,0.31c0.04,0.84,0.28,1.5,0.72,2   c0.44,0.5,0.96,0.74,1.55,0.71l0.12-0.01l0.15-0.01c0.73-0.03,1.37-0.3,1.91-0.81c0.35-0.33,0.66-0.69,0.92-1.09   c0.17,0.36,0.41,0.68,0.71,0.93c0.64,0.54,1.49,0.79,2.55,0.74l0.12-0.01c1.65-0.08,3.06-0.64,4.24-1.7   c0.6-0.53,1.12-1.11,1.58-1.73l-0.84,3.01l2.87-0.13l1.44-5.15c0.16-0.41,0.32-0.8,0.48-1.17c0.56-1.08,1.14-1.97,1.75-2.66   c0.9-1.03,1.68-1.55,2.35-1.55c0.31,0,0.46,0.17,0.46,0.5c-0.02,0.4-0.32,1.15-0.89,2.24c-0.55,1.14-0.97,2.14-1.28,3   c-0.31,0.87-0.46,1.75-0.46,2.65c0,1.07,0.28,1.98,0.84,2.74c0.56,0.76,1.28,1.23,2.19,1.42l3.62-4.34l-0.11-0.28   c-0.5,0-1.01-0.2-1.53-0.59c-0.52-0.39-0.78-0.98-0.78-1.76c0-0.38,0.06-0.75,0.18-1.1c0.12-0.36,0.28-0.75,0.5-1.17   c0.26-0.57,0.45-1.05,0.57-1.46c0.12-0.4,0.18-0.84,0.18-1.31c0-0.69-0.17-1.23-0.5-1.62c-0.33-0.39-0.83-0.59-1.49-0.59   c-1.34,0-2.62,0.62-3.84,1.86c-0.15,0.21-0.67,0.75-1.07,1.16c0.92-3.09,1.91-5.51,2.99-7.26c1.09-1.79,2.42-2.72,3.99-2.79   c0.57-0.03,1.04,0.1,1.4,0.38c0.36,0.28,0.55,0.65,0.57,1.12c0.01,0.31-0.06,0.67-0.22,1.08c-1.04,0.07-1.97,0.28-2.8,0.62   c-0.83,0.35-1.38,0.75-1.64,1.21c0.02,0.39,0.17,0.67,0.45,0.85c0.28,0.18,0.66,0.26,1.13,0.24c0.59-0.03,1.24-0.19,1.95-0.47   c0.71-0.29,1.31-0.64,1.8-1.05c0.41,0.02,0.95,0.11,1.64,0.26c0.76,0.15,1.45,0.26,2.05,0.33c0.61,0.07,1.3,0.09,2.07,0.06   c0.94-0.04,1.72-0.3,2.35-0.75C88.39,5.03,88.91,4.27,89.33,3.21z M45.89,14.53c-1.01,2.91-1.98,4.38-2.92,4.42   c-0.55,0.03-0.85-0.41-0.89-1.31c-0.03-0.71,0.09-1.54,0.37-2.47c0.28-0.93,0.66-1.74,1.14-2.41c0.48-0.68,0.98-1.03,1.51-1.05   c0.33-0.02,0.6,0.09,0.83,0.31c0.22,0.22,0.36,0.52,0.39,0.89C46.07,13.8,45.92,14.34,45.89,14.53z M61.18,17.38   c-0.36,0.5-0.82,0.76-1.37,0.78c-0.35,0.02-0.64-0.07-0.87-0.27c-0.23-0.19-0.36-0.43-0.37-0.72c-0.01-0.31,0.07-0.57,0.24-0.81   c0.17-0.23,0.38-0.35,0.63-0.37c0.18-0.01,0.32,0.08,0.41,0.26l0.32-0.32c0.02-0.39-0.09-0.72-0.34-0.98   c-0.25-0.26-0.62-0.39-1.11-0.39c0.43-0.86,0.95-1.75,1.56-2.68c0.04,0.45,0.28,1.07,0.73,1.86c0.04,0.08,0.12,0.22,0.22,0.43   c0.1,0.21,0.2,0.42,0.29,0.64c0.09,0.22,0.14,0.45,0.16,0.7C61.71,16.26,61.55,16.88,61.18,17.38z"></path>
	<path class="st0" d="M48.55,23.82c-3.61,0.17-7,0.4-10.18,0.69c-3.18,0.29-5.41,0.56-6.68,0.8l3.66,3.66   c2.85-0.99,7.22-1.88,13.09-2.68c5.87-0.8,11.42-1.32,16.63-1.56l2.29-0.08l-0.65-0.77C62.41,23.48,56.36,23.46,48.55,23.82z"></path>
	<path class="st0" d="M84.31,14.51l-0.73-0.59c-0.35,0.42-0.41,0.49-0.81,0.88l-0.79-0.99c0.32-0.23,0.45-0.35,0.59-0.53   c0.21-0.27,0.32-0.6,0.32-0.89c-0.01-0.69-0.6-1.16-1.39-1.11c-0.82,0.05-1.4,0.58-1.39,1.28c0.01,0.37,0.12,0.63,0.48,1.12   c-0.92,0.65-1.21,1.08-1.2,1.79c0.01,0.94,0.72,1.58,1.67,1.53c0.52-0.03,1.01-0.27,1.6-0.78l0.44,0.52l1.24-0.07l-0.96-1.14   C83.8,15.1,83.87,15.03,84.31,14.51z M81.53,12.1c0.22-0.01,0.38,0.15,0.38,0.37c0,0.24-0.12,0.41-0.49,0.66   c-0.23-0.27-0.3-0.41-0.3-0.61C81.12,12.3,81.3,12.11,81.53,12.1z M81.18,16.01c-0.39,0.02-0.72-0.29-0.73-0.68   c0-0.32,0.17-0.56,0.69-0.92l0.89,1.08C81.74,15.83,81.47,16,81.18,16.01z"></path>
	<path class="st0" d="M89.37,15.43c-1.02,0.06-1.76-0.69-1.77-1.77c-0.02-1.08,0.67-1.89,1.66-1.94c0.47-0.03,0.87,0.12,1.33,0.51   l0.74-0.8c-0.68-0.61-1.27-0.83-2.15-0.78c-1.63,0.09-2.78,1.38-2.76,3.1c0.01,0.78,0.3,1.53,0.79,2.03   c0.51,0.53,1.2,0.78,2.04,0.73c0.84-0.05,1.44-0.33,2.09-0.97l-0.71-0.76C90.28,15.2,89.89,15.4,89.37,15.43z"></path>
	<path class="st0" d="M94.2,15.02c-0.37,0.02-0.63,0.3-0.62,0.65c0.01,0.36,0.27,0.61,0.63,0.59c0.35-0.02,0.62-0.3,0.61-0.64   C94.82,15.25,94.55,15,94.2,15.02z"></path>
	<path class="st0" d="M95.43,10.87c-0.33-0.31-0.79-0.47-1.28-0.44c-0.5,0.03-0.95,0.22-1.27,0.55c-0.37,0.37-0.56,0.85-0.56,1.35   c0.01,0.47,0.2,0.9,0.53,1.21c0.33,0.31,0.76,0.47,1.23,0.47c0.04,0,0.07,0,0.11,0c0.99-0.06,1.78-0.9,1.77-1.88   C95.96,11.63,95.77,11.19,95.43,10.87z M94.94,12.19c0.01,0.45-0.34,0.83-0.78,0.86c-0.21,0.01-0.4-0.06-0.55-0.19   c-0.16-0.14-0.24-0.35-0.25-0.58c-0.01-0.48,0.32-0.85,0.79-0.88c0.02,0,0.03,0,0.04,0c0.19,0,0.36,0.07,0.49,0.19   C94.84,11.73,94.93,11.95,94.94,12.19z"></path>
</g>
</svg>